<?xml version="1.0" encoding="utf-8"?>
<!-- Generator: Adobe Illustrator 23.0.6, SVG Export Plug-In . SVG Version: 6.00 Build 0)  -->
<svg version="1.1" id="レイヤー_1" xmlns="http://www.w3.org/2000/svg" xmlns:xlink="http://www.w3.org/1999/xlink" x="0px"
	 y="0px" viewBox="0 0 179.8 24" style="enable-background:new 0 0 179.8 24;" xml:space="preserve">
<style type="text/css">
	.st0{fill:#0154A2;}
	.st1{fill:#231815;}
</style>
<g>
	<path class="st0" d="M14.2,12.9c-4.6,4.6-9.7,7.6-10.1,7.3c-0.3-0.3,3.3-4.4,8.1-9.2c4.8-4.8,8.9-8.4,9.2-8.1
		C21.8,3.2,18.8,8.3,14.2,12.9z"/>
	<path class="st0" d="M16.9,15.6c-3.2,3.2-7.1,4.8-7.3,4.6c-0.2-0.2,2.3-3,5.6-6.3c3.3-3.3,6.1-5.8,6.3-5.6
		C21.7,8.5,20.1,12.3,16.9,15.6z"/>
	<path class="st0" d="M21.5,20.2c1.2-1.2,1.3-2.9,0.2-4c-1.1-1.1-2.8-1-4,0.2c-1.2,1.2-1.3,2.9-0.2,4C18.6,21.5,20.3,21.4,21.5,20.2
		z"/>
</g>
<g>
	<path class="st1" d="M38.1,9.6c-0.1,0.6-0.3,2.1-1.4,3.5c-0.9,1.1-1.8,1.6-2.4,1.9l-1-1.1c0.9-0.4,2.1-1.1,2.8-3h-8.9V9.6H38.1
		 M27.7,18.9c2-0.8,3.8-2,3.8-6.7l1.5,0c-0.2,4.9-2,6.7-4.5,7.8L27.7,18.9z"/>
	<path class="st1" d="M41,12.8c0,2.8-0.4,5.7-2.4,7.5l-1.1-1.1c1.7-1.2,2.1-3.6,2.1-6.1V9.6H41V12.8 M44.5,18.3
		c2.8-0.7,3.5-3.9,3.7-4.9l1.3,0.5c-1.2,5.6-5.2,5.9-6.4,6V9.2h1.4V18.3z"/>
	<path class="st1" d="M59.5,10.1c-0.3,3.6-1.3,8.6-8.4,9.9l-0.6-1.3c6.2-1,6.9-4.9,7.2-7.2h-8.4v-1.3H59.5z"/>
	<path class="st1" d="M69.2,11.8c-0.4,2.2-1.2,3.3-3.1,4.5l-0.8-1c1.6-0.8,2-1.8,2.2-2.2h-7v-1.2H69.2 M60.8,19.2
		c1.7-0.8,3.2-1.9,3.1-5.4l1.3,0c-0.2,3.7-1.3,5.2-3.6,6.4L60.8,19.2z"/>
	<rect x="70.2" y="13.8" class="st1" width="9.5" height="1.5"/>
	<path class="st1" d="M91.7,12.9v1.3h-4.1l0,0.4c-0.1,1.1-0.2,2.5-1.4,3.8c-1,1.1-2.6,1.5-3.9,1.8l-0.6-1.3c2.5-0.4,4.3-1,4.4-4.3
		l0-0.4h-4.9v-1.3H91.7 M89.5,9.6v1.3h-7.5V9.6H89.5 M90,10.9c0-0.8-0.1-1.2-0.3-2l0.9-0.1c0.2,0.7,0.3,1.3,0.4,2L90,10.9
		 M91.6,10.6c-0.1-0.7-0.2-1.5-0.4-2l0.9-0.2c0.1,0.3,0.3,0.7,0.4,1.9L91.6,10.6z"/>
	<path class="st1" d="M100.2,9.2h1.4v2.5h2.2V13h-2.2v0.8c0,1.8-0.2,3.4-1.6,4.6c-1.6,1.3-3.4,1.5-4.2,1.6l-0.6-1.3
		c2-0.2,3.1-0.8,3.8-1.3c1.1-0.8,1.2-2.8,1.2-3.6V13h-3.8v3.2H95V13h-1.9v-1.3H95V9.3h1.4v2.3h3.8V9.2 M102.4,10.6
		c-0.1-1-0.1-1.2-0.3-2l0.8-0.1c0.2,0.7,0.2,1.1,0.3,2L102.4,10.6 M103.9,10.5c-0.1-1-0.1-1.1-0.3-2l0.9-0.1c0.2,0.6,0.3,1.3,0.3,2
		L103.9,10.5z"/>
	<path class="st1" d="M110.9,20.2h-1.5v-5.7c-2,1.3-3.7,1.9-4.7,2.2l-0.7-1.2c1.7-0.6,5.5-1.8,9.2-6.3l1.4,0.8c-2,2.1-3,2.9-3.6,3.3
		V20.2z"/>
	<path class="st1" d="M119.3,13c-1-0.7-2.5-1.5-3.8-1.9l0.7-1.2c1.1,0.3,2.2,0.7,3.9,1.7L119.3,13 M115.6,18.2
		c4.4-0.3,7.4-1.8,9.3-7.6l1.4,0.6c-1.9,5.5-4.7,7.8-10.2,8.5L115.6,18.2z"/>
	<path class="st1" d="M133.6,11.8c-0.3,0.8-0.6,1.2-0.8,1.6l-1.3-0.7c0.2-0.2,0.2-0.3,0.4-0.5h-1.5v1c0.4,0.7,1.1,1.4,1.7,2.1
		l-0.8,1.1c-0.4-0.4-0.6-0.9-0.9-1.4h0v5.4h-1.2v-5.9h0c-0.3,1-0.7,2-1.5,3.2l-0.6-1.6c0.9-1.2,1.5-2.6,1.9-4.1h-1.6V11h1.8V8.7h1.2
		V11h1.5v1.3h0c0.3-0.6,0.7-1.3,1.2-3.1l1.3,0.2c-0.1,0.4-0.2,0.7-0.3,1.3h1V8.7h1.3v1.9h2.7v1.2h-2.7v1.8h2.9v1.3h-2.5
		c0.9,1.6,1.6,2.4,2.7,3.3l-0.7,1.4c-0.5-0.4-1.7-1.5-2.4-3.3h0v4.2h-1.3v-4.2h0c-0.7,1.3-1.6,2.2-2.8,3.1l-0.8-1.2
		c1.1-0.8,2.4-1.8,3.3-3.5h-2.8v-1.3h3.1v-1.8H133.6z"/>
	<path class="st1" d="M150.4,10.7h1.4v1.3h-3.8c0.1,2.2,0.6,4.5,1,5.5c0.2,0.4,0.7,1.5,1.2,1.5c0.5,0,0.7-1.5,0.7-1.9l1.2,0.7
		c-0.2,1-0.5,2.8-1.7,2.8c-1.2,0-2.1-1.5-2.4-2c-1.1-2.1-1.2-4.5-1.3-6.6h-6.7v-1.3h6.7c0-0.7-0.1-1.8-0.1-2h1.3c0,0.6,0,1.1,0,2
		h2.3v0c-0.7-0.5-1.3-0.8-1.9-1.1l0.8-1c1,0.5,1,0.5,2,1.2L150.4,10.7 M139.9,18.8c0.3,0,0.5-0.1,0.6-0.1c0.3-0.1,1.7-0.2,2.1-0.3
		v-3.7h-2.5v-1.3h6.1v1.3h-2.3v3.5c1.5-0.2,2.2-0.4,2.7-0.5V19c-2.1,0.4-5,0.9-6.5,1.1L139.9,18.8z"/>
	<path class="st1" d="M155.1,12.6c-1,0.6-1.5,0.9-2.1,1.1l-0.7-1.2c2-0.7,4.4-2.3,5.5-3.9h1.5c0.9,1.5,3,2.9,5.5,3.9l-0.8,1.3
		c-0.5-0.3-1.3-0.6-2-1.1v0.7h-6.7V12.6 M162.6,20.7c-0.2-0.3-0.2-0.3-0.5-0.9c-6.6,0.4-7.1,0.5-9,0.5l-0.2-1.3c0.3,0,1.2,0,1.8,0
		c0.4-0.7,0.9-1.8,1.2-2.9h-3.3v-1.2h11.4V16h-6.6c-0.6,1.4-1,2.2-1.4,2.9c2.6-0.1,3.2-0.1,5.2-0.2c-0.8-1.1-1.1-1.4-1.5-1.8
		l1.1-0.7c0.5,0.5,1.9,1.9,2.9,3.7L162.6,20.7 M161.1,12.1L161.1,12.1c-1-0.7-1.9-1.5-2.6-2.4c-0.5,0.6-1.2,1.4-2.6,2.4v0H161.1z"/>
	<path class="st1" d="M168.3,20.6H167v-4.9c-0.7,0.7-1.2,1-1.5,1.2l-0.6-1.3c1.6-1,2.9-2.3,3.5-3.7h-3.3v-1.2h1.9v-2h1.3v2h1.5v1.2
		c0,0.3-1,1.8-1.3,2.1c0.6,0.7,1,1,1.8,1.6l-0.6,1.2c-0.6-0.5-0.9-0.8-1.4-1.3V20.6 M172.7,8.6h1.3v3.6h2.7v1.4H174v5.2h3v1.4h-7.5
		v-1.4h3.2v-5.2H170v-1.4h2.7V8.6z"/>
</g>
</svg>
