<?xml version="1.0" encoding="utf-8"?>
<!-- Generator: Adobe Illustrator 26.5.0, SVG Export Plug-In . SVG Version: 6.00 Build 0)  -->
<svg version="1.1" id="レイヤー_1" xmlns="http://www.w3.org/2000/svg" xmlns:xlink="http://www.w3.org/1999/xlink" x="0px"
	 y="0px" width="315.6px" height="64.3px" viewBox="0 0 315.6 64.3" style="enable-background:new 0 0 315.6 64.3;"
	 xml:space="preserve">
<g>
	<path d="M151.9,51.8c-0.3-0.2-1-0.5-1.9-0.5c-1.6,0-2.2,1-2.2,1.9c0,1.2,0.7,1.7,2.2,2.4c1.7,0.7,2.7,1.6,2.7,3.2s-1.2,3-3.4,3
		c-0.9,0-2-0.3-2.5-0.7l0.3-0.7c0.6,0.4,1.4,0.7,2.3,0.7c1.5,0,2.5-0.9,2.5-2.1c0-1.2-0.6-1.9-2.1-2.5c-1.7-0.6-2.7-1.5-2.7-3
		c0-1.6,1.3-2.7,3.2-2.7c1,0,1.8,0.3,2.1,0.5L151.9,51.8L151.9,51.8z"/>
	<path d="M159.4,59.7c0,0.6,0,1.3,0.1,1.8h-0.8l-0.1-1.1h0c-0.4,0.6-1.2,1.2-2.4,1.2c-1.5,0-2.2-1.1-2.2-2.1c0-1.8,1.6-2.8,4.6-2.8
		c0-0.7,0-2.4-1.9-2.4c-0.7,0-1.3,0.2-1.9,0.6l-0.3-0.6c0.7-0.4,1.5-0.7,2.3-0.7c2.2,0,2.7,1.6,2.7,3L159.4,59.7L159.4,59.7z
		 M158.5,57.4c-1.6,0-3.7,0.2-3.7,2c0,1.1,0.7,1.5,1.5,1.5c1.6,0,2.2-1.4,2.2-1.9V57.4L158.5,57.4z"/>
	<path d="M162.1,52.4l0.9-0.3v1.7h2.1v0.7h-2.1v4.8c0,1,0.3,1.6,1.1,1.6c0.4,0,0.6-0.1,0.8-0.1l0.1,0.7c-0.2,0.1-0.6,0.2-1.1,0.2
		c-1.6,0-1.8-1.2-1.8-2.4v-4.7h-1.2v-0.7h1.2L162.1,52.4L162.1,52.4z"/>
	<path d="M173.2,57.6c0,2.9-1.9,4.1-3.6,4.1c-2,0-3.5-1.5-3.5-3.9c0-2.6,1.7-4.1,3.6-4.1C171.8,53.6,173.2,55.3,173.2,57.6z
		 M169.6,54.3c-1.9,0-2.7,1.7-2.7,3.3c0,1.8,1.1,3.3,2.6,3.3s2.7-1.4,2.7-3.3C172.3,56.2,171.5,54.3,169.6,54.3L169.6,54.3z"/>
	<path d="M186.1,61c-0.5,0.2-1.7,0.6-3.1,0.6c-3.8,0-5.2-2.7-5.2-5.4c0-3.1,2-5.5,5.5-5.5c1,0,1.9,0.2,2.5,0.5l-0.3,0.7
		c-0.5-0.3-1.2-0.5-2.3-0.5c-2.8,0-4.6,1.8-4.6,4.7c0,2.9,1.7,4.8,4.4,4.8c1,0,1.7-0.2,2.1-0.4v-3.7h-2.4v-0.7h3.2L186.1,61
		L186.1,61z"/>
	<path d="M193,59.7c0,0.6,0,1.3,0.1,1.8h-0.8l-0.1-1.1h0c-0.4,0.6-1.2,1.2-2.4,1.2c-1.5,0-2.2-1.1-2.2-2.1c0-1.8,1.6-2.8,4.6-2.8
		c0-0.7,0-2.4-1.9-2.4c-0.7,0-1.3,0.2-1.9,0.6l-0.3-0.6c0.7-0.4,1.5-0.7,2.3-0.7c2.2,0,2.7,1.6,2.7,3L193,59.7L193,59.7z
		 M192.2,57.4c-1.6,0-3.7,0.2-3.7,2c0,1.1,0.7,1.5,1.5,1.5c1.6,0,2.2-1.4,2.2-1.9V57.4L192.2,57.4z"/>
	<path d="M198.7,54.5c-0.1,0-0.2,0-0.4,0c-1.3,0-2,1.4-2,2.8v4.2h-0.9v-5.4c0-0.8,0-1.5-0.1-2.3h0.8l0,1.5h0.1
		c0.3-1,1.1-1.7,2.1-1.7c0.1,0,0.2,0,0.3,0L198.7,54.5L198.7,54.5z"/>
	<path d="M206.2,59.7c0,0.6,0,1.3,0.1,1.8h-0.8l-0.1-1.4h0c-0.4,0.8-1.3,1.6-2.6,1.6c-1.8,0-3.2-1.5-3.2-3.9c0-2.6,1.5-4.1,3.4-4.1
		c1.2,0,2,0.6,2.4,1.3h0v-4.8h0.9L206.2,59.7L206.2,59.7z M205.4,56.9c0-1.6-1.1-2.5-2.3-2.5c-1.6,0-2.6,1.4-2.6,3.4
		c0,1.7,0.8,3.2,2.5,3.2c1.6,0,2.4-1.5,2.4-2.5L205.4,56.9L205.4,56.9z"/>
	<path d="M214,61.2c-0.3,0.2-1.1,0.5-2.4,0.5c-2.2,0-3.6-1.6-3.6-3.9c0-2.5,1.4-4.2,3.4-4.2c2.4,0,3,2.3,3,3.5c0,0.2,0,0.3,0,0.5
		h-5.5c0,2.4,1.3,3.3,2.8,3.3c1,0,1.6-0.2,2.1-0.4L214,61.2L214,61.2z M213.6,56.9c0-1.1-0.4-2.6-2.2-2.6c-1.6,0-2.3,1.5-2.4,2.6
		H213.6z"/>
	<path d="M222.3,61.5h-0.9V57c0-1.4-0.5-2.6-2-2.6c-1.3,0-2.3,1.1-2.3,2.4v4.7h-0.9v-5.8c0-0.7,0-1.3-0.1-1.9h0.8l0.1,1.3h0
		c0.4-0.8,1.3-1.5,2.6-1.5c0.8,0,2.6,0.4,2.6,3.2V61.5L222.3,61.5z"/>
</g>
<g>
	<path d="M102.5,55.2c-0.2-0.1-0.6-0.3-1.2-0.3c-1,0-1.4,0.7-1.4,1.2c0,0.7,0.4,1.1,1.4,1.5c1.1,0.5,1.7,1,1.7,2
		c0,1-0.8,1.9-2.2,1.9c-0.6,0-1.3-0.2-1.6-0.4l0.2-0.5c0.4,0.3,0.9,0.4,1.5,0.4c1,0,1.6-0.5,1.6-1.3c0-0.8-0.4-1.2-1.3-1.6
		c-1.1-0.4-1.7-1-1.7-1.9c0-1,0.8-1.7,2-1.7c0.6,0,1.1,0.2,1.4,0.3L102.5,55.2L102.5,55.2z"/>
	<path d="M104.4,55.5c-0.2,0-0.4-0.2-0.4-0.5c0-0.2,0.2-0.4,0.4-0.4s0.4,0.2,0.4,0.4C104.8,55.3,104.7,55.5,104.4,55.5z M104.7,61.3
		h-0.6v-4.9h0.6C104.7,56.4,104.7,61.3,104.7,61.3z"/>
	<path d="M110.1,61.3h-0.6v-2.9c0-0.9-0.3-1.6-1.3-1.6c-0.8,0-1.4,0.7-1.4,1.5v3h-0.6v-3.7c0-0.5,0-0.8,0-1.2h0.5l0,0.9h0
		c0.3-0.5,0.9-1,1.6-1c0.5,0,1.7,0.3,1.7,2L110.1,61.3L110.1,61.3z"/>
	<path d="M113.8,57.1c-0.2-0.1-0.5-0.3-0.9-0.3c-0.6,0-0.9,0.4-0.9,0.8c0,0.5,0.3,0.7,1,1c0.8,0.3,1.2,0.7,1.2,1.4
		c0,0.9-0.7,1.4-1.7,1.4c-0.5,0-0.9-0.1-1.2-0.3l0.2-0.5c0.2,0.1,0.6,0.3,1.1,0.3c0.7,0,1.1-0.4,1.1-0.9s-0.3-0.8-1-1.1
		c-0.8-0.3-1.2-0.8-1.2-1.3c0-0.7,0.6-1.3,1.5-1.3c0.4,0,0.8,0.1,1.1,0.3L113.8,57.1L113.8,57.1z"/>
	<path d="M118.8,61.1c-0.2,0.1-0.7,0.3-1.5,0.3c-1.4,0-2.3-1-2.3-2.5c0-1.6,0.9-2.6,2.2-2.6c1.6,0,1.9,1.5,1.9,2.2
		c0,0.1,0,0.2,0,0.3h-3.5c0,1.5,0.8,2.1,1.8,2.1c0.7,0,1-0.1,1.3-0.3L118.8,61.1L118.8,61.1z M118.5,58.4c0-0.7-0.3-1.7-1.4-1.7
		c-1,0-1.4,0.9-1.5,1.7H118.5z"/>
	<path d="M124,61.3v-6.2h0l-1.1,0.6l-0.1-0.4l1.3-0.8h0.5v6.7L124,61.3L124,61.3z"/>
	<path d="M130.5,58c-0.4,0.5-0.9,0.8-1.6,0.8c-1.2,0-1.8-1-1.8-2c0-1.2,0.8-2.4,2.1-2.4c1.2,0,2,1,2,2.8c0,2.2-1.1,3.7-2.7,4
		c-0.3,0.1-0.6,0.1-0.8,0.1v-0.5c0.2,0,0.4,0,0.7,0C129.6,60.7,130.3,59.4,130.5,58L130.5,58L130.5,58z M127.5,56.8
		c0,1,0.6,1.6,1.4,1.6c0.9,0,1.6-0.7,1.6-1.1c0-1.4-0.5-2.3-1.5-2.3C128.1,54.9,127.5,55.7,127.5,56.8L127.5,56.8z"/>
	<path d="M135.2,61.3h-0.5v-1.9h-3V59l3-4.4h0.5v4.3h1v0.4h-1L135.2,61.3L135.2,61.3z M132.2,58.9h2.4v-2.6c0-0.3,0-0.7,0-1h0
		c-0.2,0.4-0.4,0.6-0.5,0.9L132.2,58.9L132.2,58.9z"/>
	<path d="M140.3,58c-0.4,0.5-0.9,0.8-1.6,0.8c-1.2,0-1.9-1-1.9-2c0-1.2,0.8-2.4,2.1-2.4c1.2,0,2,1,2,2.8c0,2.2-1.1,3.7-2.7,4
		c-0.3,0.1-0.6,0.1-0.9,0.1v-0.5c0.2,0,0.4,0,0.7,0C139.4,60.7,140.1,59.4,140.3,58L140.3,58L140.3,58z M137.4,56.8
		c0,1,0.6,1.6,1.4,1.6c0.9,0,1.6-0.7,1.6-1.1c0-1.4-0.5-2.3-1.5-2.3C138,54.9,137.4,55.7,137.4,56.8L137.4,56.8z"/>
</g>
<g>
	<path d="M67.9,14.7c-2.1,3.7-4.4,7-6.8,9.7c-0.2-0.3-0.6-0.8-0.9-1.1c4.7-5.2,9.4-13.5,12.3-22l2,0.7c-0.1,0.3-0.4,0.4-0.9,0.4
		c-1.3,3.5-2.8,6.8-4.4,10.1l0.8,0.2c0,0.2-0.2,0.4-0.7,0.4v30.8h-1.4L67.9,14.7L67.9,14.7z M104.4,12.5H84.2
		c-0.9,3.9-2.1,7.5-3.3,11h21.9v1.4H91.6V41h12.5v1.4H77.2V41h13V24.8h-9.6v-0.6c-2.3,5.8-5.2,10.9-9,14.7c-0.2-0.3-0.7-0.7-1-1
		c5.8-5.8,9.6-14.8,12.2-25.5H72.4v-1.4h10.7c0.7-3.2,1.4-6.6,1.9-10l2.2,0.4c0,0.4-0.3,0.5-0.9,0.5c-0.5,3.1-1.1,6.1-1.8,9.1h19.8
		C104.4,11.1,104.4,12.5,104.4,12.5z"/>
	<path d="M126.1,11.1v30.4c0,1.1-0.3,1.6-1.1,1.8c-0.8,0.2-2.3,0.3-4.8,0.2c-0.1-0.3-0.4-0.9-0.6-1.3c1.1,0,2.1,0,2.8,0
		c2.2,0,2.3,0,2.3-0.7V29.9h-8c-0.3,4.7-1.3,9.9-3.4,13.9c-0.2-0.3-0.8-0.7-1.2-0.8c3.1-5.8,3.4-13.6,3.4-19.3V11.1H126.1
		L126.1,11.1z M155,24.2h-6.8c2.1,2.6,4.7,4.6,7.6,5.8c-0.3,0.3-0.7,0.7-1,1.1c-3.2-1.4-6-3.9-8.2-6.9h-10.6
		c-2.1,3.3-4.9,5.9-8.2,7.7c-0.2-0.3-0.7-0.7-1-1c3-1.6,5.5-3.9,7.5-6.7h-6.9v-1.4h7.8c0.9-1.5,1.7-3.2,2.4-4.9h-8.5v-1.4h9
		c0.7-2.1,1.2-4.2,1.6-6.6l1.4,0.3V6.5h-14.7v3.8h-1.4V6.5h-12V5.1h12V0.9l2.1,0.2c0,0.2-0.2,0.4-0.7,0.5v3.6h14.7V0.9l2.1,0.2
		c0,0.2-0.2,0.4-0.7,0.5v3.6H155v1.4h-12.3v3.8H142c-0.1,0.2-0.3,0.3-0.7,0.4c-0.4,2-0.8,3.9-1.4,5.7h14.1v1.4h-9.2
		c0.7,1.8,1.5,3.4,2.6,4.9h7.8L155,24.2L155,24.2z M117,23.7c0,1.5,0,3.1-0.1,4.8h7.9v-7.5H117V23.7z M124.7,12.5H117v7.1h7.7
		C124.7,19.7,124.7,12.5,124.7,12.5z M127.8,40c2.8-1.1,6.9-2.9,11-4.7l0.3,1.2c-3.7,1.7-7.5,3.4-9.9,4.5c0,0.3-0.2,0.6-0.4,0.7
		L127.8,40L127.8,40z M133.7,16.2c-0.4-1.4-1.5-3.6-2.7-5.2l1.2-0.5c1.2,1.5,2.3,3.7,2.7,5.1L133.7,16.2z M135.4,34.3
		c-0.6-1.4-2.1-3.5-3.5-5l1.1-0.6c1.5,1.4,3,3.5,3.5,4.9L135.4,34.3L135.4,34.3z M141.5,41.8c0,1.9-0.9,1.9-5.1,1.9
		c-0.1-0.4-0.3-0.9-0.6-1.4c0.9,0,1.7,0,2.3,0c1.7,0,1.9,0,1.9-0.6V26l2.1,0.2c0,0.2-0.2,0.4-0.7,0.5V41.8L141.5,41.8z M139.3,17.9
		c-0.7,1.8-1.4,3.4-2.3,4.9h8.8c-1-1.5-1.8-3.2-2.4-4.9H139.3L139.3,17.9z M153.4,41.8c-2.5-1.7-7.2-4.3-11-6l0.9-0.9
		c3.8,1.6,8.5,4.2,11,5.9L153.4,41.8L153.4,41.8z M150.5,29.3c-0.1,0.2-0.4,0.2-0.7,0.2c-1,1.4-2.7,3.3-4.1,4.7c0,0-0.9-0.7-0.9-0.7
		c1.4-1.4,3.2-3.7,4.2-5.3C148.9,28.2,150.5,29.3,150.5,29.3z M150.9,11.2c-0.2,0.2-0.4,0.3-0.7,0.3c-0.8,1.4-2.1,3.5-3.2,4.9
		c0,0-1-0.6-1.1-0.6c1.1-1.5,2.5-3.9,3.2-5.4C149.2,10.3,150.9,11.2,150.9,11.2z"/>
	<path d="M165.9,3.2h38.7v40.5h-1.4v-2.3h-35.9v2.3h-1.4V3.2z M167.3,40h35.9V4.6h-35.9C167.3,4.6,167.3,40,167.3,40z M186.4,27.1
		c1.2,1.5,2.8,3,4.6,4.3c2.3-1.4,5-3.4,6.6-4.7l1.7,0.9c-0.1,0.2-0.4,0.3-0.7,0.3c-1.7,1.3-4.3,2.9-6.5,4.2c2.8,1.9,6.1,3.3,9.2,4.2
		c-0.4,0.3-0.7,0.8-1,1.2c-5.4-1.7-11.4-5.3-14.7-9.5c-0.1,0-0.2,0.1-0.3,0.1v10.3h-1.4v-9.3c-3.6,2.9-8.5,5.3-13,6.9
		c-0.2-0.3-0.7-0.8-0.9-1c4.8-1.7,10.4-4.5,14-7.9h-9.2v-8h21.2v8L186.4,27.1L186.4,27.1z M200.1,14.8v1.4h-29.6v-1.4h14v-4.1h-10.7
		V9.3h10.7V6l2.1,0.2c0,0.2-0.2,0.4-0.7,0.5v2.7H197v1.4h-11.2v4.1C185.8,14.8,200.1,14.8,200.1,14.8z M176.1,20.5v5.2h18.4v-5.2
		H176.1z"/>
	<path d="M257.6,25.2v1.4h-25.9l0.2,0.1c-0.1,0.2-0.4,0.4-0.8,0.4c-1.6,3.7-4.2,9.2-6.5,13c7.5-0.3,17.2-0.8,26.6-1.4
		c-2.5-2.8-5.5-5.8-8.3-8.2l1.2-0.7c4.8,3.9,10.1,9.6,12.4,13.4l-1.2,0.8c-0.7-1.2-1.8-2.6-3-4.1c-12.3,0.8-25.8,1.5-33.8,1.9
		c0,0.3-0.2,0.5-0.6,0.6l-0.9-2.1l6.1-0.3c2.2-3.6,4.9-9.3,6.6-13.5h-14.2v-1.4L257.6,25.2L257.6,25.2z M227.5,12.7v-5h-11.6V6.2
		h11.6V0.9l2.1,0.2c0,0.2-0.2,0.4-0.7,0.5v4.7h15V0.9l2.1,0.2c0,0.2-0.2,0.4-0.7,0.5v4.7h12v1.4h-12v5h-1.4v-5h-15v5L227.5,12.7
		L227.5,12.7z M220.5,17v-1.4h32.3V17H220.5z"/>
</g>
</svg>
