<?xml version="1.0" encoding="UTF-8"?>
<svg id="_レイヤー_2" data-name="レイヤー_2" xmlns="http://www.w3.org/2000/svg" viewBox="0 0 425.02 99.73">
  <defs>
    <style>
      .cls-1 {
        fill: #313e5d;
      }
    </style>
  </defs>
  <g id="_レイヤー_1-2" data-name="レイヤー_1">
    <g>
      <path class="cls-1" d="M23.72,0h23.17c.06,4.05.17,8.09.17,12.14,0,1.71.53,2.66,2.31,3.16,15.16,4.21,20.14,21.94,9.45,33.57-1.11,1.2-2.02,1.95-.02,3.32,8.39,5.75,12.27,13.78,12.06,23.99-.25,12.32-11.25,23.47-23.54,23.53-8.27.04-16.53-.01-24.8,0-3.49,0-6.73-.94-9.74-2.6-6.77-3.73-10.5-9.8-12.76-16.96v-10.5c1.84-6.85,5.01-12.88,11.09-16.86,2.27-1.48,2.14-2.3.41-4.23C1.11,36.97,6.41,19.27,21.38,15.34c1.74-.46,2.13-1.4,2.14-2.94.03-4.13.12-8.26.19-12.39ZM34.62,93.22c3.32,0,5.98.01,8.65,0,13.16-.07,21.64-10.7,18.8-23.54-1.91-8.62-7.39-13.38-15.68-13.64-1.4-.04-3.07.39-3.05-2.02.05-4.96-.12-5.25,2.67-5.66,9.64-1.41,14.26-12.46,8.7-20.25-2.89-4.04-6.95-5.69-11.64-5.71-2.88-.01-3.69-1.12-3.54-3.77.16-2.66-.07-5.34.06-8.01.12-2.36-.72-3.5-3.16-3.22-.54.06-1.11.06-1.65,0-2.6-.31-3.43.95-3.3,3.4.13,2.48.04,4.97.02,7.46-.04,3.81-.22,4-4.1,4.03-8.72.07-13.26,5.7-13.75,12.29-.56,7.41,5.57,13.16,11.71,13.83,3.82.41,2.09,3.18,2.37,5.04.31,2.11-1.03,2.56-2.88,2.63-8.86.32-13.63,4.16-16.03,12.77-3.25,11.62,3.13,21.88,14.93,24.05,3.84.71,7.7.11,10.9.34Z"/>
      <g>
        <path class="cls-1" d="M94.44,44.88c1.53-2.42,2.6-5.18,3.23-8.29.19-.85.28-1.65.28-2.39,1.14.16,2.24.39,3.31.69.41.14.62.31.62.51,0,.16-.11.41-.32.73-.13.18-.28.65-.45,1.43-.05.23-.19.78-.43,1.65h2.78v-1.24c0-2.32-.09-4.18-.28-5.58,1.39.04,2.69.13,3.91.26.44.05.66.18.66.39,0,.2-.08.48-.24.85-.19.36-.28,1.7-.28,4v1.31h2.82l4.66-.08c.2,0,.32.03.36.08.04.05.06.18.06.38v2.74c0,.2-.03.32-.08.36s-.16.06-.34.06l-4.66-.08h-2.82v5.04h3.96l5.17-.08c.25,0,.38.13.38.38v2.78c0,.2-.02.33-.06.38-.04.05-.14.08-.32.08l-5.17-.08h-2.72c2.13,3.57,5.18,6.75,9.15,9.54-.63.76-1.16,1.68-1.62,2.74-.21.51-.41.77-.6.77-.18,0-.44-.17-.81-.51-3.27-2.96-5.76-6.11-7.48-9.47.02,2.55.08,5.49.15,8.81.05,2.59.08,3.9.08,3.93,0,.26-.14.39-.41.39h-3.16c-.29,0-.43-.13-.43-.39,0-.1.04-1.68.11-4.73.05-2.93.09-5.49.13-7.68-1.84,3.44-4.5,6.56-7.97,9.34-.44.36-.73.55-.88.55-.18,0-.39-.28-.66-.85-.4-.83-.95-1.57-1.65-2.24,4.08-2.63,7.31-6.03,9.69-10.2h-1.28l-5.19.08c-.24,0-.37-.04-.39-.11-.51.98-.85,1.66-1,2.05-.2.41-.36.62-.47.62-.1,0-.26-.23-.49-.7-.83-1.53-1.55-3.2-2.16-5.02.01,4.37.07,8.94.17,13.7.01,1.03.04,2.37.08,4.02.01.74.02,1.16.02,1.26,0,.2-.03.33-.08.38-.05.04-.16.06-.34.06h-3.12c-.23,0-.36-.03-.39-.09-.05-.04-.08-.15-.08-.34,0-.11.02-1.05.06-2.82.11-5.42.19-10.32.23-14.69-.91,3.23-2.22,6.22-3.93,8.96-.25.41-.44.62-.58.62-.15,0-.3-.22-.45-.66-.38-1.14-.81-2.1-1.31-2.87,2.59-3.43,4.54-7.55,5.84-12.34h-.85l-3.61.08c-.2,0-.33-.02-.38-.08-.04-.05-.06-.17-.06-.36v-2.72c0-.2.03-.33.08-.38.05-.04.17-.06.36-.06l3.61.08h1.16v-2.29c0-2.27-.11-4.01-.32-5.24,1.52.04,2.8.13,3.85.26.44.05.66.18.66.39,0,.18-.08.44-.24.81-.18.36-.26,1.6-.26,3.72v2.35l3.16-.08c.2,0,.33.03.38.08.04.05.06.17.06.36v2.72c0,.21-.03.34-.08.38s-.17.06-.36.06l-.86-.02c-.6-.03-1.28-.04-2.05-.06.94,2.2,2.18,4.32,3.72,6.33v-1.58c0-.25.14-.38.43-.38l5.19.08h2.63v-5.04h-3.96c-.29.8-.74,1.82-1.35,3.04-.26.51-.47.77-.62.77s-.44-.17-.88-.51c-.68-.49-1.41-.86-2.2-1.11Z"/>
        <path class="cls-1" d="M126.79,43.37l-4.94.08c-.18,0-.28-.02-.32-.07-.04-.04-.06-.18-.06-.4v-3.02c0-.24.02-.38.06-.41s.14-.06.32-.06l4.94.08h13.81l-.04-1.58c0-2.07-.11-3.9-.32-5.5,1.95.05,3.35.13,4.19.23.41.05.62.21.62.47,0,.06-.08.33-.23.81-.14.39-.21,1.19-.21,2.4,0,.31,0,.81.02,1.48v1.69h4.73l4.92-.08c.2,0,.32.03.36.09.04.05.06.18.06.38v3.02c0,.23-.03.36-.08.41-.04.04-.15.06-.34.06l-4.92-.08h-4.58c.29,5.36,1.02,9.75,2.2,13.17,1.23,3.8,2.38,5.69,3.46,5.69.91,0,1.49-1.88,1.73-5.64.54.55,1.37,1.13,2.5,1.75.46.25.74.43.85.55.12.13.19.3.19.53,0,.11-.03.36-.08.73-.73,4.68-2.27,7.01-4.64,6.97-3.14-.04-5.66-2.86-7.55-8.47-1.34-3.86-2.22-8.95-2.65-15.27h-14ZM134.51,51.9h-1.5v7.55c2.92-.71,5.42-1.43,7.5-2.16-.08.7-.11,1.51-.11,2.42,0,.66-.06,1.07-.17,1.2-.1.11-.43.25-.98.41-4.55,1.5-9.14,2.75-13.77,3.74-.79.19-1.33.38-1.62.58-.33.18-.56.26-.7.26-.25,0-.43-.17-.54-.51-.24-.71-.57-2.01-1-3.89,1.04-.02,2.27-.17,3.68-.45l3.7-.69v-8.47h-1.31l-4.57.09c-.29,0-.43-.13-.43-.39v-2.87c0-.23.02-.36.08-.41.05-.04.17-.06.36-.06l4.57.08h6.82l4.55-.08c.21,0,.34.03.39.09.04.05.06.18.06.38v2.87c0,.19-.03.3-.08.34-.06.04-.19.06-.38.06l-4.55-.09ZM149.38,33.13c1.25,1.01,2.35,2.19,3.31,3.53.09.13.13.23.13.32,0,.13-.13.28-.39.45l-1.82,1.24c-.23.15-.39.23-.49.23-.11,0-.23-.1-.36-.3-.78-1.3-1.78-2.52-3.01-3.66-.13-.12-.19-.23-.19-.3,0-.1.12-.23.36-.39l1.62-1.11c.23-.15.38-.23.45-.23.11,0,.24.08.39.23Z"/>
        <path class="cls-1" d="M194.78,45.06c-.65.83-1.2,1.78-1.65,2.87-.25.64-.47.96-.66.96-.14,0-.43-.1-.88-.3-2.79-1.24-5.24-2.6-7.35-4.08v2.86c0,.2-.03.32-.08.36-.05.04-.16.06-.34.06l-4.36-.08h-5.92l-4.36.08c-.2,0-.32-.03-.36-.08s-.06-.16-.06-.34v-2.93c-2.1,1.54-4.43,2.92-6.97,4.15-.46.24-.77.36-.92.36-.18,0-.41-.32-.69-.96-.49-1.04-1.07-1.89-1.73-2.55,6.48-2.56,11.4-6.28,14.77-11.18.59-.85,1.04-1.68,1.35-2.5,1.57.2,2.95.47,4.15.81.46.11.7.29.7.53,0,.29-.13.49-.38.62-.16.08-.34.19-.55.34,4.07,4.97,9.49,8.64,16.27,11.01ZM166.32,54.87l-5.09.08c-.21,0-.34-.02-.39-.08-.04-.05-.06-.16-.06-.34v-2.89c0-.2.03-.32.08-.36s.18-.06.38-.06l5.09.08h20.5l5.09-.08c.21,0,.34.03.39.08.04.05.06.16.06.34v2.89c0,.19-.02.3-.07.35s-.17.07-.39.07l-5.09-.08h-11.87c-.95,2.34-2.1,4.75-3.44,7.23,4.01-.23,7.96-.54,11.85-.96-1.18-1.44-2.11-2.53-2.8-3.27-.11-.13-.17-.23-.17-.32,0-.12.13-.25.39-.38l2.46-1.28c.18-.1.31-.15.41-.15.11,0,.24.08.39.23,2.43,2.54,4.82,5.52,7.16,8.94.09.12.13.23.13.32,0,.13-.11.26-.32.39l-2.67,1.75c-.23.15-.38.23-.45.23-.1,0-.21-.09-.32-.26-.51-.86-1.15-1.87-1.92-3.01-4.97.63-11.9,1.28-20.78,1.95-.59.04-1.05.16-1.39.36-.19.15-.41.23-.66.23-.28,0-.45-.18-.53-.55-.24-.84-.51-2.16-.81-3.96.59.05,1.21.08,1.86.08s1.4-.03,2.33-.08l1.24-.04c1.37-2.59,2.49-5.08,3.38-7.46h-4ZM169.33,44.07c.45.05,1.86.08,4.23.08h5.92c2.2,0,3.59-.03,4.15-.08-2.77-2-5.19-4.35-7.27-7.05-2.03,2.69-4.37,5.04-7.03,7.05Z"/>
        <path class="cls-1" d="M196.81,53.44c2.39-1.5,4.5-3.34,6.33-5.5,1.58-1.87,2.82-3.83,3.72-5.88h-4.36l-4.08.08c-.2,0-.33-.03-.38-.08-.04-.05-.06-.16-.06-.34v-2.86c0-.2.03-.33.09-.38.04-.04.15-.06.34-.06l4.08.09h.73v-1.58c0-2.05-.1-3.62-.3-4.7,1.38.04,2.71.13,4,.26.41.04.62.17.62.39,0,.18-.08.44-.23.81-.16.3-.24,1.32-.24,3.06v1.75h1.62c.31,0,.56-.06.73-.17.2-.1.34-.15.43-.15.25,0,.73.33,1.43,1,.69.69,1.03,1.15,1.03,1.39,0,.21-.13.42-.38.62-.43.41-.73.78-.9,1.11-.89,1.89-1.98,3.76-3.27,5.62,1.38,1.59,3.26,3.09,5.65,4.51-.55.59-1.06,1.42-1.54,2.5-.26.56-.51.85-.73.85-.16,0-.42-.16-.77-.47-1.17-1.05-2.27-2.24-3.31-3.57v10.82l.08,4.53c0,.2-.03.33-.08.38-.06.04-.19.06-.39.06h-3.08c-.21,0-.34-.03-.39-.08-.04-.05-.06-.17-.06-.36l.08-4.53v-9.21c-1.35,1.31-2.57,2.38-3.66,3.19-.41.34-.68.51-.81.51-.16,0-.36-.29-.6-.88-.44-1.21-.89-2.13-1.35-2.74ZM216.09,66.07l-5.17.08c-.2,0-.32-.03-.36-.08s-.06-.16-.06-.34v-3.04c0-.2.02-.32.07-.37s.16-.07.35-.07l5.17.08h3.23v-14.37h-1.73l-4.85.04c-.19,0-.3-.02-.34-.06s-.06-.15-.06-.34v-3.04c0-.19.03-.3.08-.34.04-.03.14-.04.32-.04l4.85.04h1.73v-6.12c0-2.52-.1-4.45-.3-5.81,1.65.05,3.07.14,4.27.26.41.05.62.18.62.39,0,.28-.06.55-.19.81-.21.41-.32,1.82-.32,4.23v6.24h2.42l4.85-.04c.21,0,.34.02.38.06s.06.14.06.32v3.04c0,.2-.03.32-.09.36-.04.03-.15.04-.34.04l-4.85-.04h-2.42v14.37h3.49l5.13-.08c.21,0,.34.03.39.08.04.05.06.17.06.36v3.04c0,.2-.02.32-.07.36s-.18.06-.38.06l-5.13-.08h-10.8Z"/>
        <path class="cls-1" d="M235.06,55.3c2.33-3.62,3.93-7.6,4.81-11.93h-.19l-3.27.08c-.2,0-.33-.02-.38-.08-.04-.06-.06-.19-.06-.39v-2.69c0-.2.03-.32.08-.36.05-.04.17-.06.36-.06l3.27.08h.45v-2.63c0-2.22-.09-3.89-.26-5.03,1.35.04,2.54.13,3.57.26.44.05.66.18.66.39,0,.15-.08.41-.23.77-.18.46-.26,1.65-.26,3.57v2.67l2.69-.08c.2,0,.33.03.38.08.04.05.06.16.06.34v2.69c0,.23-.03.36-.09.41-.04.04-.15.06-.34.06-.01,0-.27,0-.77-.02-.51-.03-1.08-.04-1.69-.06.71,2.29,1.87,4.47,3.46,6.54-.43.7-.78,1.48-1.07,2.35-.11.41-.23.62-.36.62-.06,0-.23-.21-.49-.62-.79-1.33-1.4-2.69-1.84-4.08l.26,18.84c0,.21-.03.34-.09.38-.05.04-.18.06-.38.06h-2.91c-.21,0-.34-.03-.38-.08-.04-.05-.06-.17-.06-.36,0-.03.02-.89.06-2.59.13-5.01.19-9.71.21-14.09-.73,2.84-1.7,5.4-2.91,7.68-.24.44-.41.66-.51.66-.13,0-.26-.21-.41-.62-.46-1.2-.91-2.12-1.35-2.76ZM247.76,35.56c.98.21,1.86.47,2.65.77,1.35-.7,2.6-1.46,3.74-2.27.59-.45,1.1-.94,1.52-1.47.9.64,1.7,1.31,2.39,2.01.29.31.43.58.43.81,0,.26-.17.44-.51.53-.39.1-.81.31-1.26.62-1.92,1.23-3.74,2.25-5.47,3.08v14.39c.66-.25,1.64-.69,2.93-1.32.1-1.03.15-2.39.15-4.08v-3.38c0-2.15-.08-3.85-.24-5.07,1.28.04,2.4.1,3.38.19.39.04.58.18.58.41,0,.16-.06.43-.19.81-.15.44-.23,1.66-.23,3.66v3.38c0,2.94-.13,5.25-.38,6.93-.21,1.43-.58,2.8-1.09,4.11-1.05,2.78-3.12,5.17-6.2,7.18-.48.28-.78.41-.92.41-.19,0-.44-.27-.77-.81-.49-.8-1.09-1.48-1.8-2.05,3.24-1.54,5.41-3.53,6.5-5.96.21-.45.43-1.13.66-2.05-1.62.74-3.43,1.51-5.43,2.31-.64.25-1.03.46-1.18.62-.21.15-.38.23-.51.23-.21,0-.38-.14-.49-.41-.29-.76-.59-1.86-.9-3.29.85-.14,1.8-.36,2.86-.66v-13.56c0-2.83-.08-4.86-.23-6.09ZM263.7,57.52c.73.09,1.3.13,1.73.13.38,0,.63-.09.75-.28.11-.19.17-.54.17-1.07v-17.62h-3.38v21.66l.08,6.69c0,.26-.14.39-.41.39h-2.71c-.21,0-.34-.03-.39-.08-.04-.04-.06-.14-.06-.32l.08-7.53v-16.4l-.08-7.57c0-.23.03-.36.09-.41.05-.04.18-.06.38-.06l3.18.09h3.08l3.23-.09c.17,0,.28.03.32.09.04.05.06.18.06.38l-.08,5.96v10.63l.04,5.07c0,.95-.06,1.63-.17,2.05-.11.36-.31.71-.6,1.03-.54.61-1.55.94-3.02.98-.29.01-.48.02-.58.02-.31,0-.51-.09-.58-.26-.06-.12-.13-.44-.19-.96-.15-1.01-.46-1.85-.92-2.52Z"/>
        <path class="cls-1" d="M276.73,42.6c2.09,1.18,3.89,2.49,5.39,3.93.14.13.21.23.21.3s-.08.23-.24.47l-1.65,2.22c-.2.26-.35.39-.45.39-.08,0-.18-.07-.32-.21-1.48-1.47-3.26-2.86-5.35-4.19-.18-.1-.26-.2-.26-.3,0-.06.08-.19.23-.38l1.69-2.05c.18-.21.32-.32.43-.32.08,0,.19.04.34.13ZM279.55,52.71c.58.63,1.27,1.26,2.09,1.9.56.43.85.75.85.96,0,.13-.06.42-.19.88-1.18,3.39-2.31,6.28-3.4,8.66-.38.81-.56,1.31-.56,1.48,0,.36-.14.55-.43.55-.21,0-.46-.08-.73-.23-.99-.61-1.98-1.29-2.97-2.03.76-1.03,1.4-2.05,1.9-3.08,1.14-2.42,2.29-5.45,3.46-9.09ZM278.09,32.91c1.85,1.06,3.65,2.41,5.39,4.04.15.11.23.21.23.3,0,.11-.09.28-.26.51l-1.65,2.27c-.21.25-.36.38-.43.38-.11,0-.23-.08-.34-.23-1.77-1.77-3.54-3.19-5.32-4.28-.18-.1-.26-.19-.26-.26,0-.09.09-.24.26-.47l1.65-2.1c.18-.19.31-.28.39-.28.08,0,.19.04.34.13ZM289.75,62.84l-5.24.08c-.2,0-.32-.03-.36-.08-.04-.05-.06-.16-.06-.34v-2.33c0-.19.02-.3.07-.35.04-.04.16-.07.35-.07l5.24.08h3.83v-2.07h-4.85l-5.34.08c-.21,0-.34-.03-.38-.09-.04-.05-.06-.17-.06-.38v-2.16c0-.21.03-.34.08-.39.05-.04.17-.06.36-.06l5.34.08h.58c-.36-1.03-.77-1.95-1.22-2.76l-4.7.08c-.2,0-.33-.02-.38-.08-.04-.05-.06-.16-.06-.34v-2.2c0-.23.03-.36.08-.41.05-.04.17-.06.36-.06l5.34.08h4.85v-1.95h-3.23l-5.11.08c-.2,0-.33-.03-.38-.08-.04-.05-.06-.16-.06-.34v-2.22c0-.25.14-.38.43-.38l5.11.08h3.23c-.04-.83-.09-1.49-.15-1.99,1.2.03,2.49.1,3.85.23.39.04.58.19.58.45,0,.15-.06.37-.19.66-.13.21-.21.43-.24.66h3.78l5.18-.08c.29,0,.43.13.43.38v2.22c0,.2-.03.32-.08.36-.05.04-.17.06-.36.06l-5.18-.08h-3.78v1.95h6.09l5.3-.08c.21,0,.34.03.38.08.04.06.06.19.06.39v2.2c0,.19-.02.3-.07.35-.04.04-.17.07-.37.07l-5.3-.08h-.28c-.11.09-.24.27-.38.55-.54,1.06-.92,1.8-1.15,2.22h1.77l5.3-.08c.21,0,.34.03.38.09.04.05.06.17.06.36v2.16c0,.21-.02.34-.07.39-.04.05-.17.08-.37.08l-5.3-.08h-6.05v2.07h4.58l5.26-.08c.21,0,.34.03.38.08.04.05.06.16.06.34v2.33c0,.19-.02.3-.07.35-.04.04-.17.07-.37.07l-5.26-.08h-4.58v.96l.08,3.42c0,.26-.13.39-.38.39h-3.16c-.23,0-.36-.03-.39-.08-.03-.04-.04-.14-.04-.32l.04-3.42v-.96h-3.83ZM289.9,33.4h11.76l5.28-.08c.23,0,.36.03.41.08.04.05.06.17.06.36l-.08,2.57v2.61l.08,2.54c0,.23-.03.36-.09.41-.05.04-.18.06-.38.06l-5.28-.08h-11.76l-5.22.08c-.21,0-.34-.03-.38-.08-.04-.06-.06-.19-.06-.39l.08-2.54v-2.61l-.08-2.57c0-.21.03-.34.08-.38s.17-.06.36-.06l5.22.08ZM287.63,39.16h3.19v-2.87h-3.19v2.87ZM299.28,52.07h-7.35c.58,1.27.96,2.19,1.16,2.76h4.92c.41-.74.83-1.66,1.26-2.76ZM294.13,36.29v2.87h3.19v-2.87h-3.19ZM303.9,39.16v-2.87h-3.27v2.87h3.27Z"/>
        <path class="cls-1" d="M334.97,65.62l.96-.81-.68.15c-1.77.41-4.18.85-7.23,1.3-.76.14-1.29.28-1.58.43-.26.13-.46.19-.58.19-.15,0-.28-.17-.39-.51-.19-.63-.35-1.5-.49-2.61-.14.09-.43.19-.88.32-2.24.76-4.77,1.49-7.59,2.18-.88.21-1.43.38-1.65.51-.3.15-.51.23-.62.23-.24,0-.41-.17-.53-.51-.29-.75-.61-1.82-.96-3.21,1.1-.11,2.39-.31,3.87-.58l1.32-.23v-10.78h-.77l-3.57.08c-.26,0-.39-.14-.39-.41v-2.54c0-.26.13-.39.39-.39l3.57.08h.77v-3.08c-.64.03-1.22.05-1.75.08-.34.01-.53.02-.56.02-.2,0-.32-.03-.36-.08-.04-.05-.06-.17-.06-.36v-1.58s-.32.28-.85.73c-.33.28-.55.41-.66.41-.19,0-.36-.29-.51-.88-.29-1.03-.63-1.87-1.03-2.54,2.17-1.67,3.93-3.85,5.3-6.54.4-.81.66-1.5.77-2.05,1.51.14,2.69.31,3.53.51.44.08.66.23.66.47,0,.23-.15.41-.45.56l-.19.11c1.29,1.99,2.86,3.64,4.7,4.94-.55.63-1.01,1.25-1.39,1.88-.31.59-.53.88-.66.88-.15,0-.42-.19-.81-.58-1.24-1.14-2.4-2.57-3.49-4.3-1.08,1.88-2.35,3.61-3.81,5.19.29.03,1,.04,2.12.04h2.5l2.87-.08c.2,0,.33.03.38.08.04.05.06.17.06.36v2.39c0,.2-.03.33-.08.38-.05.04-.17.06-.36.06l-2.57-.09v3.08l3.38-.08c.26,0,.39.13.39.39v2.54c0,.28-.13.41-.39.41l-3.38-.08v10.05c1.13-.31,2.54-.75,4.23-1.31-.1.88-.15,1.58-.15,2.12-.04.5-.08.8-.11.88,1.22-.04,2.33-.11,3.34-.23l1.32-.13v-2.1l-2.97.08c-.2,0-.32-.02-.36-.08-.04-.05-.06-.17-.06-.36v-1.88c0-.19.02-.3.07-.35s.16-.07.35-.07l2.97.08v-1.82h-.08l-3.4.08c-.2,0-.32-.03-.36-.08-.04-.05-.06-.16-.06-.34v-1.97c0-.2.03-.32.08-.36s.16-.06.34-.06l3.44.08h3.46l3.42-.08c.2,0,.33.03.38.08.04.05.06.16.06.34v1.97c0,.19-.02.3-.07.35-.04.04-.17.07-.37.07l-3.42-.08h-.15v1.82l2.97-.08c.2,0,.32.03.36.08.04.05.06.16.06.34v1.88c0,.2-.02.32-.07.37-.04.04-.16.07-.35.07l-2.97-.08v1.73c1.38-.21,2.6-.44,3.68-.7-.11.45-.21.96-.3,1.54-.05.46-.09.73-.11.81,1.45-1.42,2.71-3.03,3.78-4.85l-.24-1.2c-.8-3.49-1.32-8.17-1.54-14.03h-7.57l-5.24.08c-.2,0-.32-.03-.36-.08-.04-.05-.06-.16-.06-.34v-2.33c0-.2.03-.32.08-.36s.16-.06.34-.06l4.36.08v-2.12l-3.16.08c-.2,0-.33-.03-.38-.08-.04-.05-.06-.18-.06-.38v-2.01c0-.2.03-.32.09-.36.04-.04.15-.06.34-.06l3.16.08c0-1.5-.08-2.66-.23-3.46,1.4.04,2.57.11,3.49.23.36.04.54.15.54.34,0,.14-.08.36-.23.66-.16.31-.24,1.05-.24,2.2v.08c.93-.01,1.72-.04,2.39-.08.08,0,.24-.01.51-.04h.19c.2,0,.32.03.36.08.04.05.06.16.06.34v2.01c0,.21-.03.34-.08.39-.04.04-.15.06-.34.06l-3.08-.08v2.12h5.03c-.03-.64-.04-1.6-.04-2.89-.04-2.38-.14-4.16-.3-5.34.78.01,1.93.1,3.46.26.41.08.62.22.62.43,0,.14-.06.38-.19.73-.19.43-.28,1.69-.28,3.8v3.01h.73l5.2-.08c.2,0,.32.03.36.08.04.05.06.16.06.34v2.33c0,.2-.03.32-.08.36s-.16.06-.34.06l-5.2-.08h-.64c.12,4.32.39,7.78.81,10.39.46-1.28.83-2.37,1.11-3.27.26-.98.52-2.22.77-3.74.89.34,1.76.74,2.61,1.2.41.24.62.45.62.64,0,.09-.13.32-.39.7-.2.36-.4.9-.6,1.62-.9,2.98-1.92,5.61-3.04,7.89.65,2.29,1.26,3.44,1.84,3.44.31,0,.56-.42.73-1.26.13-.66.26-1.83.39-3.51.56.71,1.11,1.24,1.65,1.58.33.19.49.39.49.6,0,.08-.01.22-.04.43-.26,2.57-.73,4.35-1.41,5.35-.49.74-1.15,1.11-1.97,1.11-1.55,0-2.85-1.32-3.89-3.96-1.03,1.47-2.12,2.77-3.27,3.93-.43.39-.7.58-.81.58s-.32-.19-.62-.58c-.46-.69-1.03-1.28-1.69-1.77ZM315.87,53.56c.73,2.1,1.21,4.05,1.45,5.82.03.11.04.21.04.28,0,.15-.15.29-.45.41l-1.62.64c-.24.1-.39.15-.47.15-.1,0-.18-.13-.23-.38-.28-2.1-.71-4.03-1.32-5.77-.05-.15-.08-.26-.08-.32,0-.14.14-.26.43-.38l1.58-.66c.19-.09.31-.13.38-.13.1,0,.19.11.28.32ZM321.41,58.95c.53-1.34.98-2.82,1.37-4.45.1-.46.16-.95.19-1.47.98.29,1.8.58,2.46.88.29.1.43.23.43.38,0,.14-.09.29-.26.47-.18.16-.32.46-.43.88-.34,1.23-.72,2.35-1.15,3.38-.19.49-.36.73-.51.73-.08,0-.32-.1-.73-.3-.41-.21-.87-.38-1.37-.51ZM333.13,45.72l3.23-.08c.21,0,.34.03.38.08.04.06.06.19.06.39l-.08,2.1v1.77l.08,2.1c0,.26-.14.39-.43.39l-3.23-.08h-3.19l-3.23.08c-.28,0-.41-.13-.41-.39l.08-2.1v-1.77l-.08-2.1c0-.23.03-.36.08-.41.05-.04.16-.06.34-.06l3.23.08h3.19ZM333.68,50.14v-2.1h-4.26v2.1h4.26ZM344.65,34.45c.98,1.22,1.87,2.61,2.69,4.19.05.13.08.22.08.28,0,.14-.13.29-.39.45l-1.65,1.03c-.23.15-.38.23-.45.23-.06,0-.15-.1-.26-.3-.85-1.9-1.72-3.38-2.59-4.41-.09-.13-.13-.22-.13-.28,0-.08.14-.2.41-.38l1.5-.96c.15-.11.28-.17.38-.17.13,0,.27.11.43.32Z"/>
        <path class="cls-1" d="M357.11,63.94l-4.85.08c-.2,0-.32-.02-.36-.08-.04-.05-.06-.16-.06-.34v-3.23c0-.21.03-.34.08-.38s.16-.06.34-.06l4.85.08h9.28v-19.91h-6.76l-5.2.08c-.2,0-.32-.03-.36-.08-.04-.05-.06-.16-.06-.34v-3.25c0-.2.03-.32.08-.36s.16-.06.34-.06l5.2.08h18.45l5.17-.08c.2,0,.32.03.36.08.04.05.06.16.06.34v3.25c0,.2-.03.32-.08.36s-.16.06-.34.06l-5.17-.08h-7.35v19.91h9.81l4.85-.08c.2,0,.32.03.38.08.04.05.06.17.06.36v3.23c0,.19-.02.3-.07.35-.04.04-.17.07-.37.07l-4.85-.08h-23.43Z"/>
        <path class="cls-1" d="M393.18,66.26c-.28.51-.49.77-.66.77-.14,0-.39-.21-.77-.62-.78-.89-1.61-1.57-2.5-2.05,1.35-1.94,2.25-4.47,2.71-7.59.3-2.09.45-5,.45-8.72l-.08-6.41c0-.21.03-.34.08-.38s.16-.06.34-.06l3.89.08h4.81l3.85-.08c.2,0,.33.03.38.08.04.05.06.17.06.36l-.08,3.57v5.88l.08,3.49c0,.23-.03.36-.09.41-.04.04-.15.06-.34.06h-2.97c-.2,0-.32-.03-.36-.09-.04-.05-.06-.18-.06-.38v-1.03h-5.77c-.28,5.16-1.27,9.39-2.97,12.7ZM406.37,34.17c.2,0,.32.03.36.08.04.05.06.17.06.36v2.8c0,.21-.03.34-.08.39-.05.04-.16.06-.34.06l-4.47-.08h-6.46l-4.45.08c-.21,0-.34-.03-.38-.09-.04-.05-.06-.17-.06-.36v-2.8c0-.21.03-.34.08-.38s.17-.06.36-.06l4.45.08h6.46l4.47-.08ZM401.91,44.71h-5.66v5.43h5.66v-5.43ZM402.21,64.17c2.52-2.09,4.23-4.65,5.15-7.67.73-2.4,1.09-5.72,1.09-9.96v-4.7c0-2.24-.09-4.33-.28-6.26,1.43.24,2.65.55,3.66.92,2.76-.64,5.24-1.55,7.46-2.74.65-.3,1.33-.74,2.05-1.33.91.75,1.76,1.66,2.54,2.72.21.24.32.49.32.77,0,.24-.21.38-.62.43-.29.03-.78.18-1.46.45-3.51,1.44-6.78,2.51-9.81,3.19v4.73h7.03l5.28-.08c.2,0,.32.03.36.08.04.05.06.16.06.34v2.86c0,.2-.03.32-.08.36s-.16.06-.34.06c-.05,0-.23,0-.55-.02-1.08-.03-2.27-.04-3.57-.06v13.96l.08,4.81c0,.26-.13.39-.39.39h-3.16c-.25,0-.38-.13-.38-.39l.04-4.81v-13.96h-4.38c-.08,4.22-.53,7.62-1.35,10.2-.93,2.89-2.5,5.49-4.73,7.8-.38.41-.65.62-.81.62-.15,0-.41-.22-.77-.66-.71-.83-1.52-1.52-2.42-2.07Z"/>
      </g>
    </g>
  </g>
</svg>