<svg width="257" height="49" viewBox="0 0 257 49" fill="none" xmlns="http://www.w3.org/2000/svg">
<path d="M27.6236 2.02798V0H25.3717V2.02798C11.262 2.55024 0 12.8691 0 25.5256C0 38.1799 10.9975 48.2545 24.876 49V46.9931C12.2414 46.2497 2.25192 36.9269 2.25192 25.5256C2.25192 14.1242 12.5035 4.55295 25.3717 4.02858V6.03129C13.7498 6.55144 4.51099 15.0803 4.51099 25.5256C4.51099 35.9687 13.4925 44.2491 24.876 44.9841V42.9771C14.7388 42.2443 6.7653 34.7115 6.7653 25.5214C6.7653 15.849 15.6014 8.00451 26.5012 8.00451C37.3986 8.00451 46.2395 15.8511 46.2395 25.5214C46.2395 35.1937 38.2636 42.2443 28.1288 42.9771V44.9841C39.5123 44.2449 48.4914 35.8213 48.4914 25.5256C48.4914 15.2298 39.2478 6.55144 27.6236 6.03129V4.02858C40.4941 4.55295 50.7457 13.9747 50.7457 25.5256C50.7457 37.0743 40.7562 46.2497 28.1264 46.9931V49C42.0025 48.2545 53 38.0325 53 25.5256C53 13.0165 41.738 2.55445 27.6236 2.02798Z" fill="black"/>
<path d="M18.0044 18.0324C16.0637 18.0324 14.9702 18.0608 13.5368 18.1886V14C14.6623 14.1015 15.975 14.1522 18.066 14.1522H35.0645C37.1284 14.1522 38.1579 14.1279 39.5346 14V18.1886C38.0347 18.0608 37.0003 18.0324 35.0941 18.0324H28.8459V30.9108H36.2221C38.2194 30.9108 39.4977 30.8601 41 30.7302V35C39.6577 34.8701 38.0668 34.8194 36.1876 34.8194H16.7828C14.9702 34.8194 13.5959 34.8701 12 35V30.7302C13.5664 30.8601 14.7535 30.9108 16.874 30.9108H23.7207V18.0324H17.9995H18.0044Z" fill="black"/>
<path d="M63.9023 19.8438C63.6523 20.4023 63.3828 20.9414 63.0742 21.4844H72.6484V31.7461C72.6484 32.9727 72.4219 33.6367 71.5781 34.0117C70.7734 34.4062 69.5937 34.4258 67.918 34.4258C67.8164 33.7422 67.4844 32.7031 67.168 32.0352C68.2227 32.0977 69.4297 32.0977 69.7734 32.0977C70.125 32.0781 70.2461 31.9727 70.2461 31.6836V30.4375H62.7734V34.4062H60.3438V25.3672C59.5156 26.2813 58.625 27.1133 57.6016 27.7969C57.2617 27.2578 56.4688 26.3672 56 25.9102C58.1914 24.4336 59.9023 22.25 61.1445 19.8438H56.625V17.5156H62.1836C62.5195 16.6641 62.7773 15.832 62.9922 15L65.5352 15.582C65.3281 16.2266 65.1211 16.8711 64.875 17.5156H74.9648V19.8438H63.9023ZM70.25 23.6445H62.7773V24.9727H70.25V23.6445ZM70.25 28.3789V27.0312H62.7773V28.3789H70.25Z" fill="black"/>
<path d="M86.207 16.7891C85.6289 18.5938 84.9258 20.8789 84.2852 22.5C85.6289 24.0938 85.8789 25.5273 85.8789 26.7383C85.9023 28.1055 85.5938 28.9766 84.9258 29.4414C84.6016 29.7109 84.1602 29.8359 83.6992 29.918C83.293 29.9805 82.7969 29.9609 82.2773 29.9609C82.2578 29.3359 82.0703 28.3789 81.7148 27.7578C82.1133 27.7773 82.4219 27.7773 82.6875 27.7773C82.918 27.7773 83.1016 27.7148 83.2852 27.5898C83.5352 27.4023 83.6523 27.0078 83.6523 26.4336C83.6523 25.457 83.3477 24.168 82.1289 22.7773C82.5625 21.4453 83.043 19.5781 83.4102 18.1211H81.5898V34.4258H79.2891V15.9141H84.1758L84.5273 15.8125L86.1992 16.7891H86.207ZM97.3828 27.1133C96.4844 27.9648 95.4766 28.8594 94.5859 29.543C95.4062 30.7266 96.4766 31.6641 97.832 32.2656C97.2891 32.7656 96.5703 33.6992 96.2344 34.3633C93.1953 32.7422 91.5859 29.6484 90.6562 25.5977H89.168V30.957C90.1367 30.7891 91.1523 30.6016 92.1406 30.418L92.332 32.5781C89.9531 33.1367 87.4062 33.6562 85.4688 34.0938L84.6641 31.7031C85.2812 31.6211 86 31.4961 86.8125 31.3711V15.9375H96.4062V25.5977H92.8047C93.0117 26.3672 93.2891 27.1133 93.5938 27.7969C94.2734 27.1328 94.9727 26.3867 95.4531 25.7422L97.3828 27.1133ZM89.1719 18.082V19.7227H93.9648V18.082H89.1719ZM89.1719 23.4766H93.9648V21.7344H89.1719V23.4766Z" fill="black"/>
<path d="M105.637 22.0039C104.539 22.793 103.336 23.5 102.137 24.0781C101.844 23.4766 101.203 22.543 100.688 22.0039C104.223 20.4453 107.492 17.4961 109.043 15.043H111.609C113.797 18.0977 117.086 20.4648 120.348 21.6289C119.73 22.2734 119.199 23.1641 118.766 23.8945C117.629 23.3516 116.426 22.668 115.289 21.8789V23.5195H105.637V22.0039ZM101.977 25.2422H119.066V27.5273H109.809C109.207 28.7539 108.527 30.043 107.902 31.207C109.887 31.1445 112.016 31.0547 114.133 30.9766C113.492 30.2344 112.781 29.4805 112.098 28.8594L114.27 27.7148C116.113 29.3359 118.031 31.4961 119.008 33.0547L116.719 34.4453C116.504 34.0508 116.215 33.6172 115.891 33.1602C111.023 33.4297 105.922 33.6367 102.402 33.8008L102.074 31.3945L105.195 31.2891C105.754 30.125 106.332 28.7539 106.77 27.5273H101.977V25.2422ZM114.402 21.2539C112.809 20.0508 111.379 18.6992 110.434 17.4102C109.547 18.6797 108.215 20.0273 106.645 21.2539H114.402Z" fill="black"/>
<path d="M131.262 28.7734C130.828 28.1953 130.125 27.3633 129.426 26.5938V34.4258H126.98V27.2578C126.16 28.0273 125.289 28.7109 124.422 29.2539C124.215 28.5898 123.637 27.3828 123.258 26.9062C125.52 25.6797 127.691 23.5 129.051 21.0898H124.051V18.8672H126.98V15.043H129.426V18.8672H130.359L130.793 18.7617L132.18 19.6562C131.559 21.2344 130.73 22.7305 129.738 24.0938C130.73 24.9062 132.324 26.3398 132.758 26.7617L131.27 28.7695L131.262 28.7734ZM143.113 31.4141V33.8242H131.406V31.4141H136.18V23.8164H132.254V21.4258H136.18V15.2148H138.699V21.4258H142.617V23.8164H138.699V31.4141H143.113Z" fill="black"/>
<path d="M164.273 31.6016C164.273 32.9297 164.004 33.6172 163.137 34.0117C162.289 34.4062 160.965 34.4453 159.117 34.4453C159.035 33.7422 158.664 32.6406 158.316 32C159.531 32.0625 160.922 32.043 161.312 32.043C161.711 32.0195 161.832 31.918 161.832 31.543V20.8867H157.02C156.973 21.6562 156.895 22.4219 156.727 23.2344C158.484 24.832 160.723 26.9727 161.832 28.4062L159.805 30.0078C158.984 28.8633 157.43 27.1797 155.922 25.6641C155.117 27.4102 153.715 29.1133 151.473 30.4414C151.121 29.9453 150.355 29.0703 149.754 28.6133V34.4688H147.293V18.4766H154.492V15.0273H157.035V18.4766H164.27V31.6016H164.273ZM149.754 28.5469C153.664 26.5117 154.363 23.4375 154.469 20.8789H149.754V28.5469Z" fill="black"/>
<path d="M185.891 26.0117C186.551 26.6367 187.328 27.1133 188.246 27.4258C187.812 27.8203 187.254 28.6094 186.965 29.1484C186.57 28.9766 186.199 28.7734 185.848 28.5469C185.348 29.1094 184.875 29.5859 184.457 29.9375L183.055 29.2305C183.488 28.7344 184.086 27.9023 184.441 27.3633C184.043 26.9688 183.719 26.5117 183.402 26.0117H180.176C179.789 26.5742 179.375 27.0938 178.871 27.5703C179.395 28.0703 179.863 28.7109 180.078 29.2109L178.484 30.1445C178.312 29.7305 177.941 29.168 177.531 28.6719C177.223 28.8789 176.891 29.0859 176.539 29.2734C176.355 28.9609 175.902 28.4023 175.527 27.9844V32.1836C175.527 33.1367 175.383 33.6797 174.828 34.0117C174.25 34.3437 173.465 34.3828 172.363 34.3828C172.301 33.8242 172.051 32.9727 171.781 32.4297C172.379 32.4531 172.996 32.4531 173.184 32.4531C173.395 32.4531 173.457 32.3711 173.457 32.1602V28.8984H171.762C171.551 30.8945 171.117 32.9492 170.207 34.4883C169.859 34.1563 168.965 33.5938 168.492 33.4062C169.812 31.1445 169.922 27.9023 169.922 25.5117V19.8633H175.527V27.4883C176.332 27.0938 177.016 26.5937 177.602 26.0117H175.988V24.3516H178.879C179.062 23.9961 179.25 23.6445 179.398 23.25H176.414V21.6289H177.457C177.305 21.1289 177.078 20.5469 176.812 20.0898L178.512 19.5703C178.902 20.1758 179.273 20.9844 179.359 21.5234L179.023 21.6289H179.934C180.098 20.9648 180.227 20.2383 180.309 19.4688L182.352 19.6328C182.25 20.3398 182.125 21.0039 181.984 21.6289H183.406C183.656 21.0273 184.008 20.1328 184.172 19.5078L186.219 20.0273C185.891 20.6094 185.578 21.168 185.305 21.6289H187.066V23.25H184.109C184.25 23.6172 184.414 23.9922 184.605 24.3516H187.703V26.0117H185.883H185.891ZM173.625 18.2227H169.094V16.2266H173.625V15.0234H176.07V16.2266H180.477V15.0234H182.938V16.2266H187.527V18.2227H182.938V19.3867H180.477V18.2227H176.07V19.4688H173.625V18.2227ZM173.465 27.0508V25.2852H171.906V25.5117C171.906 25.9961 171.906 26.5117 171.887 27.0508H173.465ZM171.906 21.7734V23.4141H173.465V21.7734H171.906ZM180.387 31.6016C179.152 32.2656 177.828 32.957 176.684 33.5312L175.77 31.7461C176.867 31.3711 178.418 30.707 179.969 30.0234L180.383 31.6016H180.387ZM183.324 29.875C184.648 30.5625 186.469 31.6211 187.398 32.3906L186.008 33.7617C185.289 33.1367 183.855 32.1836 182.621 31.457V32.4727C182.621 33.3906 182.473 33.8281 181.871 34.1133C181.297 34.4063 180.492 34.4062 179.414 34.4062C179.332 33.8867 179.109 33.1797 178.871 32.6602C179.449 32.6797 180.094 32.6797 180.305 32.6797C180.516 32.6797 180.574 32.6172 180.574 32.4297V26.6133H182.625V30.543L183.324 29.875ZM182.586 24.3516C182.434 23.9961 182.312 23.6211 182.188 23.25H181.523C181.402 23.6172 181.254 23.9922 181.09 24.3516H182.586Z" fill="black"/>
<path d="M210.305 30.5V32.9922H191.516V30.5H199.391V19.7656H192.625V17.1875H209.148V19.7656H202.199V30.5H210.305Z" fill="black"/>
<path d="M227.027 29.6875C228.789 30.7656 231.188 31.5781 233.582 31.9531C233.027 32.4922 232.297 33.5312 231.93 34.1992C229.387 33.5547 226.883 32.3086 224.977 30.6875V34.4258H222.566V30.8125C220.645 32.3281 218.094 33.5313 215.637 34.1758C215.281 33.5742 214.582 32.6172 214.059 32.1211C216.375 31.6406 218.816 30.7656 220.602 29.6875H214.664V27.6523H222.566V26.7383H216.609V24.9492H222.566V24.0117H215.574V22.082H219.504C219.336 21.5625 219.07 20.9375 218.793 20.4609L219.047 20.418H214.723V18.4023H217.488C217.203 17.6133 216.66 16.6172 216.207 15.8281L218.32 15.1016C218.922 15.9922 219.605 17.2188 219.895 18.0273L218.887 18.3984H220.762V15.0117H223.062V18.3984H224.59V15.0117H226.906V18.3984H228.742L227.992 18.168C228.492 17.3164 229.004 16.0703 229.301 15.1562L231.883 15.7812C231.305 16.7344 230.742 17.6719 230.27 18.3984H232.961V20.4141H229.07C228.734 21.0156 228.41 21.5781 228.094 22.0742H232.148V24.0078H224.965V24.9414H231.176V26.7344H224.965V27.6484H233.016V29.6836H227.02L227.027 29.6875ZM221.406 20.4297C221.699 20.9688 221.961 21.5703 222.113 22.0234L221.762 22.0898H225.629C225.875 21.5938 226.125 20.9883 226.352 20.4297H221.406Z" fill="black"/>
<path d="M240.66 26.9062C240.531 29.4414 240.098 32.4102 238.824 34.4453C238.426 34.0313 237.414 33.2617 236.879 32.9727C238.238 30.7422 238.363 27.5078 238.363 25.1172V19.8438H246.414V26.9062H240.66ZM246.824 18.2852H237.68V16.0391H246.824V18.2852ZM240.699 22.043V24.6875H244.035V22.043H240.699ZM256.582 24.4141H254.746V34.4258H252.305V24.4141H249.906C249.719 27.5898 248.953 31.6211 246.203 34.3828C245.871 33.8633 244.961 33.0117 244.383 32.7227C247.254 29.793 247.547 25.6836 247.547 22.6094V16.875L249.242 17.2695C251.16 16.7109 253.086 15.9609 254.289 15.2344L256.461 17.1055C254.578 18.0234 252.18 18.7891 249.945 19.3281V22.0234H256.586V24.4141H256.582Z" fill="black"/>
</svg>
