<?xml version="1.0" encoding="utf-8"?>
<!-- Generator: Adobe Illustrator 22.1.0, SVG Export Plug-In . SVG Version: 6.00 Build 0)  -->
<svg version="1.1" id="レイヤー_1" xmlns="http://www.w3.org/2000/svg" xmlns:xlink="http://www.w3.org/1999/xlink" x="0px"
	 y="0px" viewBox="0 0 498.95847 62.917" style="enable-background:new 0 0 498.95847 62.917;" xml:space="preserve">
<style type="text/css">
	.st0{fill:#00AFE9;}
	.st1{fill:#4C4948;}
</style>
<g>
	<g>
		<g>
			<path class="st0" d="M48.61967,18.1314c0.0605,0.0058,0.1211,0.0088,0.1826,0.0098l0,0
				C48.73877,18.1412,48.67728,18.1372,48.61967,18.1314z"/>
		</g>
		<g>
			<g>
				<path class="st0" d="M90.15478,33.6817c-0.56741-9.4732-8.27631-18.3028-21.5781-18.3028h-19.4219
					c-0.55659-0.0068-0.7177,0.1661-0.80559,0.5308l-0.28131,1.5283c-0.0752,0.4536,0.1055,0.649,0.5264,0.6934
					c0.0068,0,0.0166,0,0.0254,0c0.0576,0.0058,0.1191,0.0098,0.1826,0.0098l0,0c3.6816,0.2124,3.7461,1.0458,3.5654,2.4418
					c-0.1806,1.398-0.7617,4.6641-6.748,31.4639l-0.459,2.3379c-0.3994,1.9551-0.7207,2.7432-5.2344,2.9063
					c-0.2812,0.0439-0.41209,0.1738-0.4863,0.3925l-0.294,1.5772c-0.1172,0.5459,0.1094,0.749,0.6348,0.7715h23.874
					C78.28957,60.0323,91.04637,48.6104,90.15478,33.6817z M61.63037,57.3047c-4.2568,0-5.1416-1.4248-5.2373-3.1133
					c-0.0684-1.1044,0.207-2.0752,0.6719-4.3486l5.8633-27.6479c0.5097-2.5977,1.4882-4.0904,6.1445-4.0904
					c4.8545,0,9.0117,2.8555,9.5127,11.231C79.22028,39.9131,74.40187,57.3047,61.63037,57.3047z"/>
			</g>
		</g>
		<path class="st0" d="M100.39897,0h-64.0049c-0.4424,0-0.916,0.3423-1.0557,0.7618l-14.2031,43.413l0,0
			c-0.1084,0.3008-0.5928,0.2832-0.7188-0.0058l-6.3164-14.9146c-0.1621-0.4101-0.5752-0.4961-0.9052-0.1992L0.25928,40.834
			c-0.3252,0.2989-0.3486,0.8047-0.0469,1.1319l2.1182,2.2734c0.3027,0.3223,0.8184,0.3477,1.1533,0.0547l4.7022-4.1543
			c0.333-0.293,0.7353-0.1973,0.8984,0.2119l8.5674,21.8174c0.1611,0.4131,0.6543,0.748,1.0977,0.748h1.7412
			c0.4443,0,0.9179-0.3457,1.0586-0.7636l18.5644-56.0791c0.1377-0.4205,0.6133-0.7627,1.0576-0.7627h59.2276
			c0.4423,0,0.8017-0.3623,0.8017-0.8033v-3.707C101.20068,0.3609,100.84127,0,100.39897,0z"/>
	</g>
	<g>
		<path class="st1" d="M110.06597,45.5625c4.2656-2.5058,7.2119-6.8105,8.2675-11.9492c0.5713-2.7563,0.7915-6.3496,0.7915-13.0342
			l5.2769,0.3345c0,8.439-0.3955,12.7837-1.49509,16.4185c-1.4512,4.7636-4.44141,8.8164-8.83891,11.9902L110.06597,45.5625z
			 M134.16457,19.0332v22.8946c4.5737-2.4649,9.3667-6.7676,12.79691-11.4468l2.9023,4.5112
			c-4.30959,5.4317-10.1582,10.2364-17.01849,13.9121l-3.9136-2.7558V19.0332H134.16457z"/>
		<path class="st1" d="M187.33887,30.648v5.1802h-28.5015V30.648H187.33887z"/>
		<path class="st1" d="M204.70508,15.9419v10.9458c5.9805,2.4234,11.30179,5.2222,16.66699,8.6905l-3.3862,4.6797
			c-5.3213-3.5938-9.41119-6.0586-13.28079-7.897v18.4653h-5.62889V15.9419H204.70508z"/>
		<path class="st1" d="M246.21977,21.3311v3.6768h-15.96341v-3.6768H246.21977z M245.03227,38v12.2832h-9.41071v1.7969h-4.13379V38
			H245.03227z M244.37257,15.7329v3.5093h-12.09331v-3.5093H244.37257z M244.37257,27.0132v3.3423h-12.09331v-3.3423H244.37257z
			 M244.37257,32.3609v3.3423h-12.09331v-3.3423H244.37257z M235.62157,46.7735h5.2774v-5.3477h-5.2774V46.7735z M264.86578,32.8623
			l2.46289,2.0889c-1.4512,3.0918-3.5625,6.0996-6.4209,9.0664c2.375,1.461,5.67279,2.8399,9.10251,3.8438l-2.63773,4.0527
			c-3.21088-1.0879-6.72849-2.9258-9.63089-5.0137c-2.9902,2.4219-6.5966,4.3867-9.895,5.4297l-2.6382-3.8008
			c3.21001-0.7949,6.4639-2.2988,9.2784-4.3027c-2.1543-1.9219-4.08989-4.5547-5.32079-7.2695h-2.28671v-4.0948H264.86578z
			 M262.44678,16.0669v9.9019c0,0.7519,0.2637,0.9609,1.1875,0.9609c1.1875,0,1.4512-0.209,1.53909-1.2954l0.08789-1.1279
			c0.04391-0.418,0.04391-0.919,0.08792-1.9219l4.08978,1.2119c-0.2637,6.6846-0.79199,7.3111-6.15619,7.3111
			c-4.0899,0-5.32132-0.6685-5.32132-2.8829v-8.0629h-3.87019v0.6684c0,5.8906-1.53899,9.0239-5.49699,11.2383l-3.12209-3.1333
			c3.12209-1.3789,4.13379-3.4258,4.13379-8.105v-4.7632H262.44678z M253.69577,36.9571
			c0.9678,1.6289,2.33011,3.2168,3.95801,4.5957c1.84668-1.8399,3.07819-3.3848,3.69339-4.5957H253.69577z"/>
		<path class="st1" d="M295.38718,21.3311v3.6768h-18.55762v-3.6768H295.38718z M293.93607,38v13.7461h-4.48538v-1.4629h-6.50882
			v1.7969h-4.48529V38H293.93607z M292.88037,15.7329v3.5093h-13.54391v-3.5093H292.88037z M292.88037,27.0132v3.3423h-13.54391
			v-3.3423H292.88037z M292.88037,32.3609v3.3423h-13.54391v-3.3423H292.88037z M282.94186,46.7735h6.50882v-5.3477h-6.50882
			V46.7735z M308.05228,14.939v12.1997h8.0918v4.5952h-8.0918v20.3462h-5.0137V31.7339h-8.2666v-4.5952h8.2666V14.939H308.05228z"/>
		<path class="st1" d="M332.63626,14.4795v8.1885h4.61722v4.0942c1.23138-2.4648,2.06729-5.6816,2.5947-9.9013l4.3096,0.6269
			c-0.1319,1.3369-0.35159,2.7154-0.6153,4.0108h3.3418v-7.0191h4.66119v7.0191h8.35541v4.0942h-8.35541v4.9297h10.20309v4.0947
			h-9.19138c2.63858,4.1348,6.24408,7.5625,10.33398,9.9004l-2.7706,4.3457c-3.56149-2.8418-6.5517-6.3086-8.5751-9.8594v13.0762
			h-4.66119V39.3789c-1.89062,3.8028-4.6611,7.4375-7.91602,10.3614l-3.20999-3.8848c4.26569-2.7988,7.6084-6.4766,10.1582-11.2383
			h-8.88281v-4.0947h9.85062v-4.9297h-4.3974c-0.4834,1.5039-1.1875,3.0913-2.0235,4.6792l-3.6933-2.5903
			c0.13177-0.209,0.26358-0.418,0.39548-0.752h-4.5293v4.0523c2.11032,1.7968,3.64941,3.3423,5.54102,5.5141l-2.6387,4.1778
			c-1.01172-1.8379-1.75882-3.0899-2.90231-4.7207v16.1269h-4.5733V34.5332c-1.27539,3.8028-2.7265,7.0196-4.53018,9.9844
			l-2.1543-5.2637c2.7265-3.3418,4.83688-7.6035,6.2002-12.3242h-5.18851V22.668h5.67279v-8.1885H332.63626z"/>
		<path class="st1" d="M389.01419,22.6265c-0.13184-2.5068-0.30762-6.4756-0.30762-8.147h5.0137
			c0.04391,2.2564,0.13181,5.0137,0.30759,7.938h12.4892v4.2612h-12.18158c0.61618,6.4341,1.62689,10.4034,3.7822,14.5811
			c1.09958,2.1719,2.6387,4.1777,3.20999,4.1777c0.61621,0,1.4072-2.4238,2.06741-6.1836l4.30948,2.9258
			c-1.36328,6.3907-3.12198,9.3574-5.54099,9.3574c-2.55081,0-5.9805-3.1328-8.31149-7.6445
			c-2.33112-4.4707-3.5625-9.0664-4.44141-17.0049h-20.2735v-4.2612H389.01419z M388.53076,31.5669v4.0952h-6.15619v7.4786
			c3.78119-0.795,6.0683-1.2969,8.04678-1.8399l0.39651,3.9688c-4.9697,1.5468-11.3457,3.0097-20.00882,4.6797l-1.67188-4.5957
			c1.97949-0.25,6.15729-0.918,8.39948-1.336v-8.3555h-6.81638v-4.0952H388.53076z M400.36087,22.2505
			c-1.58401-2.3813-3.0791-4.2197-4.66211-5.5566l4.13382-2.0054c1.89059,1.6709,3.25388,3.1753,4.83789,5.1807L400.36087,22.2505z"
			/>
		<path class="st1" d="M424.28568,28.3501c-2.06741,1.4624-4.5733,2.8409-7.69632,4.2613l-3.03418-3.9273
			c7.43259-2.6738,13.01758-7.144,16.93069-13.5776h5.7168c4.30951,5.4726,10.1152,9.5669,17.7226,12.4917l-3.12201,4.0522
			c-2.68268-1.1279-5.18948-2.4228-7.3887-3.8017v2.9243h-19.12888V28.3501z M451.81396,34.4082v4.1778h-20.0527
			c-1.36328,2.8398-2.59479,5.1797-4.0459,7.4355c4.88181-0.291,10.07031-0.709,13.89651-1.0859
			c-1.40732-1.5039-2.15433-2.2129-4.00201-3.8848l4.26559-2.1308c3.87012,3.3007,7.2569,6.7265,10.20322,10.4453l-4.5303,2.8828
			l-0.08789-0.127c-0.04401-0.082-0.96683-1.3359-1.36331-1.8379c-0.35159-0.5-0.7471-1.0019-1.14261-1.5039l-0.26459-0.375
			c-7.9151,1.127-17.3262,2.1309-27.04489,2.8399l-1.49521-4.6367l0.66019-0.0411l1.62701-0.0429l1.58301-0.084l1.62689-0.041
			l0.4834-0.041c1.36328-2.2579,2.6387-4.8047,3.91409-7.7715h-10.2901v-4.1778H451.81396z M441.65576,26.6787
			c-3.20999-2.2138-6.02438-4.7626-8.22357-7.478c-1.84671,2.7988-4.17783,5.3477-6.81552,7.478H441.65576z"/>
		<path class="st1" d="M470.68219,14.6885v7.2276h3.78119l1.93558,1.9218c-1.1875,2.4649-2.9903,5.1807-5.3653,8.1885
			c3.03421,1.8389,5.4971,3.5088,7.51959,5.1397l-2.94629,4.0527c-1.6709-1.7129-2.9903-2.9668-4.793-4.4707v15.332h-4.75v-14.414
			c-1.53909,1.6308-3.3418,3.2597-5.10059,4.6386l-2.33102-4.2207c4.08981-2.7578,9.1474-7.979,11.52142-11.9062h-10.11423v-4.2617
			h5.89264v-7.2276H470.68219z M489.06396,15.1065v10.7788h8.39938v4.4282h-8.39938v15.96h9.8945v4.5117h-24.539v-4.5117h9.54291
			v-15.96h-7.65131v-4.4282h7.65131V15.1065H489.06396z"/>
	</g>
</g>
</svg>
