<?xml version="1.0" encoding="utf-8"?>
<!-- Generator: Adobe Illustrator 26.3.1, SVG Export Plug-In . SVG Version: 6.00 Build 0)  -->
<svg version="1.1" id="レイヤー_1" xmlns="http://www.w3.org/2000/svg" xmlns:xlink="http://www.w3.org/1999/xlink" x="0px"
	 y="0px" viewBox="0 0 215.4 34.1" style="enable-background:new 0 0 215.4 34.1;" xml:space="preserve">
<style type="text/css">
	.st0{fill:#009038;}
	.st1{fill:#DF2718;}
	.st2{fill:#A0A0A0;}
</style>
<g>
	<g>
		<path class="st0" d="M26.8,2.7h5.8v13.9h7.3v3.2H26.8V2.7z"/>
		<path class="st0" d="M2.2,19.8h6l1.4-3.4h8.5l1.4,3.4h6.4L17.6,2.7h-7.1L2.2,19.8z M16.8,13.2H11l3-7.1L16.8,13.2z"/>
		<path class="st0" d="M79.9,19.8h6l1.4-3.4h8.5l1.4,3.4h6.4L95.4,2.7h-7.1L79.9,19.8z M94.6,13.2h-5.8l3-7.1L94.6,13.2z"/>
		<g>
			<rect x="73.3" y="2.7" class="st0" width="5.8" height="17.1"/>
			<polygon class="st0" points="65.8,19.8 65.8,13 72.4,13 72.4,9.3 65.8,9.3 65.8,2.7 60,2.7 60,19.8 			"/>
		</g>
		<path class="st0" d="M50.6,2.7h-9.9v17.1h6V5.9h2.6c2.6,0,3.9,0.9,3.9,2.4s-1.3,2.4-3.9,2.4h-2.6l3,3.2h0.9c5.6,0,8.6-1.9,8.6-5.6
			S56.2,2.7,50.6,2.7z"/>
	</g>
	<g>
		<path class="st0" d="M28.1,26.5c0-0.2-0.1-0.5-0.3-0.7c-0.2-0.3-0.5-0.4-1.3-0.4c-0.3,0-1.6,0-1.6,0.9c0,0.7,0.5,0.8,2.5,1.5
			c1.2,0.4,2.3,0.8,2.3,2.2c0,0.8-0.6,2.4-3.1,2.4c-1.5,0-3.3-0.5-3.4-2.6h1.5c0,0.9,0.6,1.3,1.9,1.3c0.3,0,0.9,0,1.2-0.3
			c0.2-0.1,0.4-0.4,0.4-0.7c0-0.6-0.5-0.8-1.8-1.2c-1.8-0.6-3-1-3-2.5c0-0.8,0.5-2.3,3-2.3c1.8,0,2.9,0.6,3.2,2.4H28.1z"/>
		<path class="st0" d="M33,24.3l2.1,3.4l2.1-3.4h1.7l-3.1,4.8v3.1h-1.5v-3.1l-3.1-4.8C31.2,24.3,33,24.3,33,24.3z"/>
		<path class="st0" d="M45.2,26.5c0-0.2-0.1-0.5-0.3-0.7c-0.2-0.3-0.5-0.4-1.3-0.4c-0.3,0-1.6,0-1.6,0.9c0,0.7,0.5,0.8,2.5,1.5
			c1.2,0.4,2.3,0.8,2.3,2.2c0,0.8-0.6,2.4-3.1,2.4c-1.5,0-3.3-0.5-3.4-2.6h1.5c0,0.9,0.6,1.3,1.9,1.3c0.3,0,0.9,0,1.2-0.3
			c0.2-0.1,0.4-0.4,0.4-0.7c0-0.6-0.5-0.8-1.8-1.2c-1.8-0.6-3-1-3-2.5c0-0.8,0.5-2.3,3-2.3c1.8,0,2.9,0.6,3.2,2.4H45.2z"/>
		<path class="st0" d="M55.4,24.3v1.2h-2.8v6.7h-1.4v-6.7h-2.8v-1.2H55.4z"/>
		<path class="st0" d="M63.4,24.3v1.2h-4.7v2h4.2v1.2h-4.2V31h4.8v1.2h-6.3v-7.8h6.2V24.3z"/>
		<path class="st0" d="M67.5,24.3l1.9,6.1l1.9-6.1h2v7.8h-1.5V26l-1.9,6.1h-1L67,26v6.1h-1.5v-7.8H67.5z"/>
		<path class="st0" d="M80.1,26.5c0-0.2-0.1-0.5-0.3-0.7c-0.2-0.3-0.5-0.4-1.3-0.4c-0.3,0-1.6,0-1.6,0.9c0,0.7,0.5,0.8,2.5,1.5
			c1.2,0.4,2.3,0.8,2.3,2.2c0,0.8-0.6,2.4-3.1,2.4c-1.5,0-3.3-0.5-3.4-2.6h1.5c0,0.9,0.6,1.3,1.9,1.3c0.3,0,0.9,0,1.2-0.3
			c0.2-0.1,0.4-0.4,0.4-0.7c0-0.6-0.5-0.8-1.8-1.2c-1.8-0.6-3-1-3-2.5c0-0.8,0.5-2.3,3-2.3c1.8,0,2.9,0.6,3.2,2.4H80.1z"/>
	</g>
</g>
<g>
	<g>
		<polygon class="st1" points="123.1,12.2 123.1,4.5 119.9,4.5 110.4,18.2 114.2,18.2 119.8,10.2 119.8,16.9 		"/>
		<rect x="179.3" y="7.7" class="st1" width="3.1" height="10.5"/>
		<rect x="133.7" y="7.7" class="st1" width="3.1" height="10.5"/>
		<polygon class="st1" points="178.4,7.7 174.6,7.7 170.9,12.2 170.9,7.7 167.8,7.7 167.8,18.2 170.9,18.2 170.9,12.8 170.9,12.5 
			174.6,18.2 178.4,18.2 174.6,12.4 		"/>
		<polygon class="st1" points="132.4,18.2 132.4,4.5 129.3,4.5 119.8,18.2 123.6,18.2 129.2,10.2 129.2,18.2 		"/>
		<path class="st1" d="M153.9,11.6c0-2.2-1.8-4.1-4.1-4.1c-1.2,0-2.3,0.5-3.1,1.4C146,8,145,7.5,143.8,7.5c-1,0-1.9,0.4-2.5,1V7.7
			h-3.1v10.5h3.1v-6.1c0-0.8,0.7-1.6,1.6-1.6c0.8,0,1.6,0.7,1.6,1.6v6.1h3.1v-6.1c0-0.8,0.7-1.6,1.6-1.6s1.6,0.7,1.6,1.6v6.1h3.1
			L153.9,11.6L153.9,11.6z"/>
		<path class="st1" d="M163.4,18.2h3.1V7.7h-3.1v0.9c-0.9-0.7-2.1-1.1-3.3-1.1c-3,0-5.4,2.4-5.4,5.4s2.4,5.4,5.4,5.4h2.4v-3h-2.3
			c-1.3,0-2.4-1.1-2.4-2.4s1.1-2.4,2.4-2.4h0.3c1.6,0,2.8,1.3,2.8,2.8L163.4,18.2z"/>
		<path class="st1" d="M184.6,6.5c-0.7,0-1.2,0.5-1.2,1.2s0.5,1.2,1.2,1.2s1.2-0.5,1.2-1.2S185.2,6.5,184.6,6.5z M184.6,8.8
			c-0.6,0-1-0.5-1-1c0-0.6,0.5-1,1-1c0.6,0,1,0.5,1,1C185.6,8.3,185.2,8.8,184.6,8.8z"/>
		<path class="st1" d="M184.7,7.9c0.2,0,0.4-0.2,0.4-0.4c0-0.2-0.2-0.4-0.4-0.4h-0.6v1.4h0.2V7.7V7.2h0.4c0.1,0,0.2,0.1,0.2,0.2
			s-0.1,0.2-0.2,0.2h-0.4l0.6,0.7h0.2l-0.5-0.5L184.7,7.9L184.7,7.9L184.7,7.9z"/>
	</g>
	<g>
		<path class="st2" d="M190.3,14.3l-1.6,0.2c-0.2-0.4-0.5-0.6-0.9-0.6s-0.8,0.2-1,0.7s-0.4,0.9-0.4,1.5c0,0.3,0.1,0.5,0.3,0.7
			c0.2,0.2,0.5,0.3,0.7,0.3l0,0c0.4,0,0.6-0.1,0.9-0.3l0.1-0.5h-1l0.2-1.1h2.5l-0.5,2.5c-0.8,0.4-1.6,0.6-2.4,0.6
			c-0.7,0-1.3-0.2-1.8-0.5c-0.4-0.4-0.6-1-0.6-1.6c0-0.6,0.1-1.2,0.4-1.6c0.3-0.5,0.7-0.9,1.2-1.2c0.5-0.3,1.1-0.4,1.7-0.4
			C189.3,12.7,190.1,13.2,190.3,14.3z"/>
		<path class="st2" d="M191.8,12.8h3c0.5,0,0.9,0.1,1.2,0.4c0.2,0.3,0.4,0.6,0.4,1c0,0.4-0.1,0.8-0.4,1.1c-0.3,0.3-0.7,0.5-1.3,0.5
			c0.4,0.3,0.7,1,1.2,2.2h-1.7c-0.2-0.4-0.4-0.8-0.5-1.3s-0.4-0.7-0.5-0.8c-0.1-0.1-0.2-0.1-0.4-0.1h-0.1l-0.5,2.2h-1.6L191.8,12.8z
			 M193,14.9h0.3c0.5,0,0.8,0,1-0.1c0.2-0.1,0.3-0.1,0.4-0.2c0.1-0.1,0.1-0.2,0.1-0.4c0-0.1-0.1-0.2-0.1-0.4
			c-0.1-0.1-0.3-0.1-0.5-0.1h-0.8L193,14.9z"/>
		<path class="st2" d="M199.9,12.7c0.8,0,1.5,0.2,1.8,0.6c0.4,0.5,0.5,1,0.5,1.6c0,0.2-0.1,0.5-0.1,0.8c-0.1,0.4-0.2,0.6-0.4,1
			c-0.2,0.4-0.5,0.6-0.8,0.8c-0.3,0.2-0.6,0.4-0.9,0.5s-0.6,0.1-0.9,0.1c-0.7,0-1.4-0.2-1.8-0.5c-0.4-0.4-0.6-0.9-0.6-1.6
			c0-0.4,0.1-0.7,0.2-1.1c0.1-0.4,0.3-0.7,0.5-1c0.2-0.3,0.5-0.5,0.8-0.7c0.3-0.2,0.6-0.4,0.9-0.4C199.4,12.8,199.6,12.7,199.9,12.7
			z M199.3,17c0.4,0,0.5-0.1,0.8-0.4c0.2-0.2,0.4-0.5,0.5-0.9c0.1-0.4,0.2-0.6,0.2-0.8c0-0.4-0.1-0.5-0.3-0.8
			c-0.2-0.2-0.4-0.3-0.7-0.3s-0.5,0.1-0.8,0.4c-0.2,0.2-0.4,0.5-0.5,0.8c-0.1,0.4-0.2,0.7-0.2,0.9c0,0.3,0.1,0.5,0.2,0.7
			C198.8,16.8,199,17,199.3,17z"/>
		<path class="st2" d="M208.8,12.8l-0.7,3.2c-0.2,0.7-0.5,1.3-0.8,1.6s-1,0.5-1.9,0.5c-0.5,0-0.8-0.1-1.1-0.1
			c-0.3-0.1-0.5-0.2-0.7-0.4c-0.2-0.2-0.4-0.4-0.4-0.6c-0.1-0.2-0.1-0.5-0.1-0.7c0-0.4,0.1-0.6,0.1-1l0.5-2.5h1.6l-0.6,3
			c-0.1,0.1-0.1,0.3-0.1,0.5c0,0.4,0.2,0.6,0.7,0.6c0.3,0,0.5-0.1,0.7-0.2c0.2-0.2,0.4-0.5,0.4-0.9l0.6-2.9
			C207.2,12.8,208.8,12.8,208.8,12.8z"/>
		<path class="st2" d="M209.9,12.8h2.4c0.5,0,0.8,0.1,1,0.2c0.2,0.1,0.4,0.3,0.5,0.5c0.1,0.2,0.2,0.5,0.2,0.8c0,0.4-0.1,0.7-0.4,1.1
			c-0.2,0.3-0.5,0.5-0.8,0.7c-0.4,0.1-0.8,0.2-1.4,0.2h-0.7l-0.4,1.9h-1.6L209.9,12.8z M211.1,15.1h0.5c0.3,0,0.5-0.1,0.6-0.2
			c0.1-0.2,0.2-0.4,0.2-0.5c0-0.4-0.2-0.5-0.5-0.5h-0.6L211.1,15.1z"/>
	</g>
</g>
<g>
	<path d="M111.5,26.4c-0.1-0.2-0.2-0.5-0.4-0.8v3.4h-0.9v-2.9c-0.2,0.6-0.4,1.2-0.7,1.5c-0.1-0.2-0.3-0.6-0.4-0.9
		c0.4-0.6,0.8-1.6,1.1-2.5h-0.9v-0.8h1v-1.4h0.9v1.4h0.8v0.8h-0.8v0.2c0.2,0.3,0.8,1.1,0.9,1.3L111.5,26.4z M114.9,25.9
		c0.3,0.8,0.8,1.5,1.4,1.9c-0.2,0.2-0.5,0.5-0.6,0.7c-0.4-0.4-0.8-1.1-1.1-1.9v2.2h-0.9v-2.2c-0.4,0.8-0.9,1.4-1.5,1.8
		c-0.1-0.2-0.4-0.5-0.6-0.7c0.7-0.4,1.3-1.2,1.7-2H112v-0.8h1.6v-1H113c-0.1,0.3-0.3,0.6-0.4,0.9c-0.1-0.1-0.5-0.3-0.7-0.4
		c0.4-0.5,0.6-1.3,0.7-2.2l0.8,0.1c0,0.3-0.1,0.5-0.1,0.8h0.5v-1.3h0.9v1.3h1.4v0.8h-1.4v1h1.6v0.8H114.9z"/>
	<path d="M122,24.2c0.2,2.1,0.6,3.8,1.1,3.8c0.2,0,0.2-0.4,0.3-1.3c0.2,0.2,0.5,0.4,0.8,0.5c-0.1,1.4-0.4,1.7-1.1,1.7
		c-1.3,0-1.8-2.2-2-4.8h-3.7v-0.9h3.6c0-0.4,0-0.8,0-1.2h0.9c0,0.4,0,0.8,0,1.2h1.2c-0.2-0.2-0.6-0.6-0.9-0.8l0.6-0.5
		c0.3,0.2,0.8,0.6,1,0.8l-0.5,0.4h0.7v0.9H122z M119.7,27.5c0.4-0.1,0.9-0.2,1.4-0.3l0.1,0.8c-1.2,0.3-2.5,0.5-3.4,0.7l-0.2-0.9
		c0.4-0.1,0.9-0.1,1.4-0.2v-1.8h-1.1V25h3.2v0.8h-1.2V27.5z"/>
	<path d="M126.9,24.5c-0.4,0.3-0.8,0.5-1.2,0.7c-0.1-0.2-0.3-0.5-0.5-0.7c1.3-0.6,2.4-1.6,3-2.5h0.9c0.8,1.1,1.9,1.9,3.1,2.3
		c-0.2,0.2-0.4,0.5-0.6,0.8c-0.4-0.2-0.8-0.4-1.2-0.7v0.6h-3.4V24.5z M125.6,25.7h6.1v0.8h-3.3c-0.2,0.4-0.5,0.9-0.7,1.3
		c0.7,0,1.5-0.1,2.2-0.1c-0.2-0.3-0.5-0.5-0.7-0.8l0.8-0.4c0.7,0.6,1.3,1.3,1.7,1.9l-0.8,0.5c-0.1-0.1-0.2-0.3-0.3-0.5
		c-1.7,0.1-3.5,0.2-4.8,0.2l-0.1-0.9l1.1,0c0.2-0.4,0.4-0.9,0.6-1.3h-1.7V25.7z M130,24.3c-0.6-0.4-1.1-0.9-1.4-1.4
		c-0.3,0.4-0.8,0.9-1.3,1.4H130z"/>
	<path d="M135.8,26.9c-0.2-0.2-0.4-0.5-0.7-0.8v2.8h-0.9v-2.5c-0.3,0.3-0.6,0.5-0.9,0.7c-0.1-0.2-0.3-0.7-0.4-0.8
		c0.8-0.4,1.6-1.2,2.1-2.1h-1.8v-0.8h1v-1.4h0.9v1.4h0.3l0.2,0l0.5,0.3c-0.2,0.6-0.5,1.1-0.9,1.6c0.4,0.3,0.9,0.8,1.1,0.9
		L135.8,26.9z M140,27.9v0.9h-4.2v-0.9h1.7v-2.7h-1.4v-0.8h1.4v-2.2h0.9v2.2h1.4v0.8h-1.4v2.7H140z"/>
	<path d="M147.5,23.3c-0.1,0.1-0.2,0.3-0.3,0.4c-0.3,0.6-1,1.5-1.8,2l-0.8-0.6c0.6-0.4,1.2-1,1.4-1.4h-3.8c-0.3,0-0.6,0-0.9,0.1v-1
		c0.3,0,0.6,0.1,0.9,0.1h4c0.2,0,0.6,0,0.7-0.1L147.5,23.3z M144.5,24.3c0,1.8,0,3.3-2,4.4l-0.9-0.7c0.2-0.1,0.5-0.2,0.8-0.4
		c0.9-0.6,1.1-1.4,1.1-2.6c0-0.2,0-0.4-0.1-0.7H144.5z"/>
	<path d="M148.1,28c0.6-0.5,1-1.1,1.3-1.8c0.2-0.6,0.2-2,0.2-2.9c0-0.3,0-0.5-0.1-0.7h1.1c0,0-0.1,0.4-0.1,0.7c0,0.9,0,2.4-0.2,3.2
		c-0.2,0.8-0.7,1.6-1.3,2.1L148.1,28z M151.5,28.1c0-0.1,0.1-0.3,0.1-0.5v-4.3c0-0.3-0.1-0.6-0.1-0.6h1.1c0,0-0.1,0.3-0.1,0.6v3.8
		c0.6-0.3,1.3-0.8,1.8-1.6l0.6,0.8c-0.6,0.8-1.7,1.6-2.5,2c-0.2,0.1-0.2,0.1-0.3,0.2L151.5,28.1z"/>
	<path d="M161.3,23.4c-0.1,0.1-0.1,0.4-0.2,0.5c-0.2,0.7-0.5,1.9-1.1,2.7c-0.7,0.9-1.6,1.6-3,2l-0.8-0.9c1.5-0.3,2.3-1,2.9-1.7
		c0.5-0.6,0.8-1.4,0.9-2.1h-3.4c-0.3,0-0.7,0-0.9,0v-1c0.2,0,0.6,0.1,0.9,0.1h3.4c0.1,0,0.4,0,0.6-0.1L161.3,23.4z"/>
	<path d="M168.5,24.6c-0.1,0.1-0.2,0.2-0.2,0.3c-0.3,0.4-0.9,1.3-1.5,1.7l-0.7-0.5c0.4-0.3,0.9-0.8,1.1-1.1H164c-0.2,0-0.5,0-0.8,0
		v-0.9c0.2,0,0.5,0.1,0.8,0.1h3.4c0.2,0,0.5,0,0.6-0.1L168.5,24.6z M166,25.4c0,1.4,0,2.7-1.8,3.6l-0.8-0.6c0.2-0.1,0.4-0.2,0.6-0.3
		c0.8-0.6,1-1.2,1-2.1c0-0.2,0-0.4-0.1-0.5H166z"/>
	<path d="M170.2,24.9c0.3,0,0.8,0,1.2,0h4c0.3,0,0.7,0,0.9,0v1.2c-0.2,0-0.6,0-0.9,0h-4c-0.4,0-0.9,0-1.2,0V24.9z"/>
	<path d="M180,25.2l-0.5,0.8c-0.4-0.3-1.2-0.8-1.7-1l0.5-0.8C178.8,24.4,179.6,24.9,180,25.2z M180.6,26.9c1.3-0.7,2.3-1.7,2.9-2.8
		l0.6,1c-0.7,1-1.7,1.9-2.9,2.6c-0.8,0.4-1.8,0.8-2.5,0.9l-0.6-1C178.9,27.6,179.8,27.3,180.6,26.9z M181.1,23.5l-0.6,0.8
		c-0.4-0.3-1.2-0.8-1.7-1.1l0.5-0.8C179.9,22.7,180.7,23.3,181.1,23.5z"/>
	<path d="M190.4,23.3c-0.1,0.1-0.2,0.3-0.3,0.5c-0.2,0.6-0.7,1.4-1.2,2c0.7,0.6,1.6,1.6,2.1,2.1l-0.8,0.7c-0.5-0.7-1.2-1.4-1.9-2.1
		c-0.8,0.8-1.8,1.6-2.8,2.1l-0.8-0.8c1.2-0.4,2.3-1.3,3-2.1c0.5-0.6,0.9-1.3,1.1-1.8h-2.5c-0.3,0-0.7,0-0.9,0.1v-1
		c0.2,0,0.6,0.1,0.9,0.1h2.6c0.3,0,0.6,0,0.8-0.1L190.4,23.3z"/>
	<path d="M197.7,24.6c0.2,0,0.5,0,0.7,0v1c-0.2,0-0.5,0-0.7,0h-1.8c0,0.8-0.2,1.4-0.5,1.9c-0.3,0.5-0.8,1.1-1.5,1.4l-0.9-0.6
		c0.5-0.2,1-0.6,1.3-1.1c0.3-0.5,0.4-1,0.5-1.6h-2c-0.2,0-0.5,0-0.7,0v-1c0.2,0,0.5,0,0.7,0H197.7z M193.8,23.6c-0.3,0-0.6,0-0.8,0
		v-0.9c0.2,0,0.5,0.1,0.8,0.1h3c0.2,0,0.5,0,0.8-0.1v0.9c-0.3,0-0.5,0-0.8,0H193.8z"/>
	<path d="M204.6,28.6c-0.1-0.2-0.2-0.6-0.3-0.9c-1.2,0.1-3.4,0.4-4.4,0.5c-0.2,0-0.5,0.1-0.7,0.1l-0.2-1.1c0.2,0,0.6,0,0.8,0l0.2,0
		c0.4-1.1,1.1-3.1,1.3-3.9c0.1-0.4,0.1-0.6,0.2-0.8l1.2,0.2c-0.1,0.2-0.2,0.5-0.3,0.8c-0.2,0.7-0.8,2.6-1.2,3.6
		c0.9-0.1,1.9-0.2,2.7-0.3c-0.3-0.5-0.5-1-0.8-1.3l0.9-0.4c0.5,0.8,1.3,2.2,1.6,3.1L204.6,28.6z"/>
	<path d="M212.5,23.5c-0.1,0.1-0.2,0.3-0.3,0.5c-0.2,0.6-0.7,1.4-1.2,2c0.7,0.6,1.6,1.6,2.1,2.1l-0.8,0.7c-0.5-0.7-1.2-1.4-1.9-2.1
		c-0.8,0.8-1.8,1.6-2.8,2.1l-0.8-0.8c1.2-0.4,2.3-1.3,3-2.1c0.5-0.6,0.9-1.3,1.1-1.8h-2.5c-0.3,0-0.7,0-0.9,0.1v-1
		c0.2,0,0.6,0.1,0.9,0.1h2.6c0.3,0,0.6,0,0.8-0.1l0.1,0.1c-0.1-0.2-0.3-0.5-0.4-0.7l0.6-0.2c0.2,0.3,0.5,0.8,0.6,1l-0.4,0.2
		L212.5,23.5z M213.1,23.2c-0.2-0.3-0.4-0.7-0.6-1l0.6-0.2c0.2,0.3,0.5,0.7,0.6,1L213.1,23.2z"/>
</g>
</svg>
