<svg xmlns="http://www.w3.org/2000/svg" xmlns:xlink="http://www.w3.org/1999/xlink" width="508.161" height="177.846" viewBox="0 0 508.161 177.846">
  <defs>
    <clipPath id="clip-path">
      <rect id="長方形_323" data-name="長方形 323" width="508.161" height="177.846" fill="none"/>
    </clipPath>
  </defs>
  <g id="グループ_644" data-name="グループ 644" transform="translate(0 0)">
    <path id="パス_87" data-name="パス 87" d="M-.013-19.327H5.656L7.7-8.53l2.979-10.8h5.656l2.993,10.8,2.043-10.8h5.643L22.755,0H16.9L13.513-12.168,10.138,0H4.285ZM27.765-9.65A9.962,9.962,0,0,1,30.4-17.02a9.926,9.926,0,0,1,7.343-2.637q4.825,0,7.436,2.591a9.768,9.768,0,0,1,2.61,7.258,11.9,11.9,0,0,1-1.14,5.557,8.13,8.13,0,0,1-3.3,3.375A10.88,10.88,0,0,1,37.982.33,12.362,12.362,0,0,1,32.57-.712a8.148,8.148,0,0,1-3.474-3.3A10.944,10.944,0,0,1,27.765-9.65Zm5.972.026a6.48,6.48,0,0,0,1.088,4.206,3.682,3.682,0,0,0,2.96,1.279,3.68,3.68,0,0,0,2.979-1.252q1.055-1.252,1.055-4.5a5.972,5.972,0,0,0-1.1-3.988,3.763,3.763,0,0,0-2.986-1.259,3.628,3.628,0,0,0-2.9,1.279A6.5,6.5,0,0,0,33.737-9.624ZM50.256-9.65a9.962,9.962,0,0,1,2.637-7.37,9.926,9.926,0,0,1,7.343-2.637q4.825,0,7.436,2.591a9.768,9.768,0,0,1,2.61,7.258,11.9,11.9,0,0,1-1.14,5.557,8.13,8.13,0,0,1-3.3,3.375A10.88,10.88,0,0,1,60.473.33,12.362,12.362,0,0,1,55.061-.712a8.148,8.148,0,0,1-3.474-3.3A10.944,10.944,0,0,1,50.256-9.65Zm5.972.026a6.48,6.48,0,0,0,1.088,4.206,3.682,3.682,0,0,0,2.96,1.279,3.68,3.68,0,0,0,2.979-1.252q1.055-1.252,1.055-4.5a5.972,5.972,0,0,0-1.1-3.988,3.763,3.763,0,0,0-2.986-1.259,3.628,3.628,0,0,0-2.9,1.279A6.5,6.5,0,0,0,56.228-9.624Zm17.35-9.7H82.45a10.627,10.627,0,0,1,4.239.712,6.891,6.891,0,0,1,2.67,2.043,8.46,8.46,0,0,1,1.529,3.1,14.376,14.376,0,0,1,.475,3.744,13,13,0,0,1-.705,4.805A7.954,7.954,0,0,1,88.7-2.063,6.387,6.387,0,0,1,86.01-.527,13.854,13.854,0,0,1,82.45,0H73.578ZM79.55-14.95V-4.39h1.463a6.155,6.155,0,0,0,2.663-.415,2.816,2.816,0,0,0,1.239-1.45,9.105,9.105,0,0,0,.448-3.355q0-3.072-1-4.206A4.239,4.239,0,0,0,81.04-14.95Zm22.6-4.377H120.3v4.772h-6.091V0h-5.972V-14.555h-6.091Zm20.843,0h16V-15.2h-10.02v3.072h9.294v3.942h-9.294v3.81h10.31V0H122.99ZM155.369-7.9,160.6-6.315a9.651,9.651,0,0,1-1.661,3.678,7.209,7.209,0,0,1-2.815,2.228,10.528,10.528,0,0,1-4.278.751A12.414,12.414,0,0,1,146.7-.573,8.163,8.163,0,0,1,143.253-3.8,10.931,10.931,0,0,1,141.8-9.7q0-4.8,2.551-7.376t7.218-2.577a9.8,9.8,0,0,1,5.741,1.477,8.674,8.674,0,0,1,3.1,4.535l-5.273,1.173a4.517,4.517,0,0,0-.58-1.292,3.436,3.436,0,0,0-1.226-1.055,3.522,3.522,0,0,0-1.622-.369,3.506,3.506,0,0,0-3.111,1.635,6.95,6.95,0,0,0-.817,3.81q0,3.217.976,4.41a3.343,3.343,0,0,0,2.742,1.193A3.329,3.329,0,0,0,154.1-5.1,5.952,5.952,0,0,0,155.369-7.9ZM184.4-3.19h-6.8L176.66,0h-6.1l7.264-19.327h6.513L191.6,0h-6.249ZM183.146-7.37l-2.136-6.948L178.888-7.37Zm10.389-11.958h5.972v7.3l6.262-7.3h7.937l-7.04,7.291L214.022,0h-7.356l-4.074-7.95-3.085,3.23V0h-5.972Zm22.7,0h5.985V0h-5.985Zm10.3,0H241.3v4.153h-8.767V-11.8h7.488v3.9h-7.488V0h-6Zm30.56,0h5.959V-7.8a9.711,9.711,0,0,1-.534,3.237,6.991,6.991,0,0,1-1.674,2.663,6.679,6.679,0,0,1-2.393,1.6,12.035,12.035,0,0,1-4.179.646,26.278,26.278,0,0,1-3.078-.2,8.052,8.052,0,0,1-2.788-.784,6.983,6.983,0,0,1-2.05-1.668,6.126,6.126,0,0,1-1.272-2.228,11.555,11.555,0,0,1-.554-3.27V-19.327h5.959v11.8a3.37,3.37,0,0,0,.877,2.472,3.259,3.259,0,0,0,2.432.89,3.269,3.269,0,0,0,2.419-.877,3.361,3.361,0,0,0,.877-2.485Z" transform="translate(17.404 122.678)" fill="#003589"/>
    <g id="グループ_566" data-name="グループ 566" transform="translate(0 0)">
      <g id="グループ_565" data-name="グループ 565" clip-path="url(#clip-path)">
        <path id="パス_27" data-name="パス 27" d="M220.776,20.227c0,11.173-9.6,20.23-21.433,20.23s-21.438-9.057-21.438-20.23S187.5,0,199.343,0s21.433,9.057,21.433,20.227" transform="translate(287.385 0)" fill="#c41112"/>
        <path id="パス_28" data-name="パス 28" d="M128.116.225h67.553s11.262-.18,17.766,7.137c4.216,4.744,4.757,14.168,4.757,14.168V123.486H186.661V21.48s.254-4.909-1-7.033c-.792-1.342-3.5-1.47-3.5-1.47H128.116a21.091,21.091,0,0,1-1.193-6.447A19.624,19.624,0,0,1,128.116.225" transform="translate(205.03 0.363)" fill="#003589"/>
        <path id="パス_29" data-name="パス 29" d="M142.694,14.851h45.037S160.5,32.774,160.5,54.767s27.229,45.089,27.229,45.089H142.694s-16.432-13.867-16.432-42.918,16.432-42.087,16.432-42.087" transform="translate(203.962 23.99)" fill="#003589"/>
        <path id="パス_30" data-name="パス 30" d="M219.395.284S195.126-2.2,181.113,14.1c-7.917,9.2-7.506,25.265-7.506,25.265V72.605h-9v12.75h9v55.253s.751,11.858-2.751,18.47c-2.129,4.022-10.76,9.721-10.76,9.721s22.73-.272,33.665-10.32,11.372-17.871,11.372-17.871V85.355h40.536V72.605H205.133V19.293s-.212-6.371,3.63-11.1C214.517,1.111,219.395.284,219.395.284" transform="translate(258.617 0.241)" fill="#c41112"/>
        <path id="パス_31" data-name="パス 31" d="M190.784,69.57c0,11.17-9.6,20.227-21.436,20.227S147.913,80.74,147.913,69.57s9.6-20.23,21.436-20.23,21.436,9.057,21.436,20.23" transform="translate(238.936 79.703)" fill="#c41112"/>
        <path id="パス_89" data-name="パス 89" d="M26.009-20.708c-.744.248-.744.248-3.038.248h-5.58v-2.666a14.178,14.178,0,0,1,.155-2.232H13.237a11.944,11.944,0,0,1,.155,2.263v2.666H7.316a24.114,24.114,0,0,1-3.348-.155,25.416,25.416,0,0,1,.124,2.945v4.495a23.065,23.065,0,0,1-.155,2.6H8.091C8.029-11.222,8-12.059,8-13.02v-4H23.126c-.589,5.7-2.945,9.641-7.44,12.431a20.387,20.387,0,0,1-6.6,2.573,11.362,11.362,0,0,1,2.48,3.689,28.106,28.106,0,0,0,6.169-2.79,18.151,18.151,0,0,0,7.657-8.556,26.019,26.019,0,0,0,1.953-7.5,4.935,4.935,0,0,1,.465-1.705Zm9.951,3.844a31.014,31.014,0,0,1,2.821,7.5l3.5-1.116a35.759,35.759,0,0,0-3.038-7.347Zm6.634-1.3a34.089,34.089,0,0,1,2.821,7.285l3.441-1.085a30.454,30.454,0,0,0-3.007-7.13Zm10.664-.31a13.751,13.751,0,0,1-.558,3.565c-1.333,4.96-3.41,8.122-7.037,10.757A20.109,20.109,0,0,1,40.393-1.3a11.26,11.26,0,0,1,2.48,3.069c4.588-2.325,7.161-4.34,9.455-7.471a26.463,26.463,0,0,0,4.278-10.323,6.524,6.524,0,0,1,.434-1.581ZM73.935,1.4a31.8,31.8,0,0,1-.124-3.441V-10.23a17.708,17.708,0,0,0-.124-2.108,10.016,10.016,0,0,0,1.054.527A75.284,75.284,0,0,1,85.715-5.89l2.17-3.658a90.169,90.169,0,0,0-14.074-6.541v-5.766a25.69,25.69,0,0,1,.124-3.255H69.688a20.319,20.319,0,0,1,.186,3.162V-2.077A22.61,22.61,0,0,1,69.688,1.4ZM80.29-22.413a20.923,20.923,0,0,1,3.255,4.619l2.17-1.147A20.09,20.09,0,0,0,82.46-23.5ZM89.4-20.956a17.927,17.927,0,0,0-3.224-4.371L84.1-24.242a22.84,22.84,0,0,1,3.162,4.495Zm28.21,8.308a30.673,30.673,0,0,1,3.937.155v-3.689a22.02,22.02,0,0,1-4,.217H99.417a21.819,21.819,0,0,1-4-.217v3.689a30.673,30.673,0,0,1,3.937-.155h7.564a13.165,13.165,0,0,1-1.364,5.859c-1.3,2.387-3.627,4.03-7.347,5.177a9.836,9.836,0,0,1,2.511,3.41c4.185-1.674,6.448-3.379,8.091-6.107a16.833,16.833,0,0,0,2.17-8.339ZM98.549-20.212a29.2,29.2,0,0,1,3.937-.155h12.028a29.2,29.2,0,0,1,3.937.155v-3.782a21.032,21.032,0,0,1-4,.217h-11.9a21.031,21.031,0,0,1-4-.217Zm30.411,3.348a31.014,31.014,0,0,1,2.821,7.5l3.5-1.116a35.758,35.758,0,0,0-3.038-7.347Zm6.634-1.3a34.088,34.088,0,0,1,2.821,7.285l3.441-1.085a30.454,30.454,0,0,0-3.007-7.13Zm10.664-.31a13.751,13.751,0,0,1-.558,3.565c-1.333,4.96-3.41,8.122-7.037,10.757a20.108,20.108,0,0,1-5.27,2.852,11.26,11.26,0,0,1,2.48,3.069c4.588-2.325,7.161-4.34,9.455-7.471a26.463,26.463,0,0,0,4.278-10.323,6.524,6.524,0,0,1,.434-1.581Zm33.883-3.317a5.492,5.492,0,0,1-2.263.31l-6.789.093c-.589,0-1.085.031-1.488.062a7.312,7.312,0,0,0,.5-.992l.4-.806a6.256,6.256,0,0,1,.4-.868,6.34,6.34,0,0,1,.527-.961l-4.247-.837A11.569,11.569,0,0,1,165.6-21.7a23.847,23.847,0,0,1-8.029,8.99,8.236,8.236,0,0,1,3.007,2.666,30.342,30.342,0,0,0,7.254-7.936l9.331-.155a24.548,24.548,0,0,1-9.052,13.082A27.917,27.917,0,0,1,161.324-1.4a9.552,9.552,0,0,1,2.635,3.255,31.317,31.317,0,0,0,11.036-7.874A32.154,32.154,0,0,0,181.35-17.98a5.831,5.831,0,0,1,.775-1.86Zm12.369,4.03h-2.015a17.328,17.328,0,0,1-2.7-.155V-14.6a21,21,0,0,1,2.6-.155h1.581a20.738,20.738,0,0,1-4.805,8.246A12.79,12.79,0,0,1,189.1-3.6a14.492,14.492,0,0,0,1.8-2.7,19.769,19.769,0,0,0,1.829-4.092,33.817,33.817,0,0,0-.217,4.061v4.991a29.408,29.408,0,0,1-.186,3.813h3.627a23.982,23.982,0,0,1-.186-3.813V-6.851c0-1.3-.093-2.79-.186-3.813a15.146,15.146,0,0,0,2.6,4.092,9.481,9.481,0,0,1,1.767-2.666,15.554,15.554,0,0,1-3.131-3.627,7.251,7.251,0,0,1-.961-1.891h1.147a19.544,19.544,0,0,1,2.542.124v-3.286a13.412,13.412,0,0,1-2.511.155h-1.271v-4a23.894,23.894,0,0,0,2.821-.9c.651-.248,1.023-.4,1.085-.4a2.92,2.92,0,0,1,.31-.124l-1.953-2.79c-1.767,1.147-5.146,2.015-10.044,2.542a11.5,11.5,0,0,1,1.178,2.914c1.581-.217,1.891-.279,3.348-.527Zm19.9-3.193a24.986,24.986,0,0,1-2.666,8.277,8.239,8.239,0,0,1,2.635,1.7,39.435,39.435,0,0,0,3.224-8.742ZM201.624-10.695c1.24-2.852,1.705-5.146,1.922-9.455l-3.038-.558c-.062,3.875-.5,6.045-1.736,8.556Zm3.41-15.1a35.015,35.015,0,0,1,.217,5.27,44.024,44.024,0,0,1-.465,7.471,24.534,24.534,0,0,1-1.922,6.169,13.912,13.912,0,0,1-5.8,6.262,13.794,13.794,0,0,1,2.263,3.007,15.368,15.368,0,0,0,4.247-3.968c1.705-2.325,2.511-4.247,3.41-8.06a20.174,20.174,0,0,0,3.348,7.967,19.565,19.565,0,0,0,3.534,3.782,10.475,10.475,0,0,1,2.6-3.1,18.725,18.725,0,0,1-3.224-2.728,17.07,17.07,0,0,1-3.5-6.107c-.93-2.79-1.209-5.456-1.209-11.16,0-2.48.062-4,.155-4.805Zm17.453,1.581a33.794,33.794,0,0,1-3.41-.124A15.88,15.88,0,0,1,219.2-22.2v1.984a16.693,16.693,0,0,1-.124,2.232h3.317v-3.41h20.243v3.41h3.317a15.084,15.084,0,0,1-.124-2.2V-22.2a13.677,13.677,0,0,1,.124-2.139,33.794,33.794,0,0,1-3.41.124h-8.587a10.227,10.227,0,0,1,.186-2.108H230.3a10.021,10.021,0,0,1,.186,2.108Zm1.054,6.6a17.847,17.847,0,0,1,2.325-.124h13.361a18.035,18.035,0,0,1,2.356.124V-20.4a16.858,16.858,0,0,1-2.356.124H225.9a17.143,17.143,0,0,1-2.356-.124Zm18.538,3.1a15.639,15.639,0,0,1,.124-2.2,25.749,25.749,0,0,1-2.852.124H225.68a25.748,25.748,0,0,1-2.852-.124,16.519,16.519,0,0,1,.124,2.2v1.8a14.815,14.815,0,0,1-.124,2.2,28.424,28.424,0,0,1,2.852-.124h13.671c.93,0,1.953.031,2.852.124a14.038,14.038,0,0,1-.124-2.2Zm-3.193.186V-12.9H226.145v-1.426ZM220.534-.9a34.63,34.63,0,0,1-.155,3.472h3.41V1.364h17.422V2.573h3.441A26.2,26.2,0,0,1,244.466-.9V-6.355a29.7,29.7,0,0,1,.124-3.162c-.868.062-1.519.093-3.131.093H223.541c-1.643,0-2.263-.031-3.131-.093a27.89,27.89,0,0,1,.124,3.162Zm3.255-5.89h6.851V-5.3h-6.851Zm10.013,0h7.409V-5.3H233.8ZM223.789-2.883h6.851v1.612h-6.851Zm10.013,0h7.409v1.612H233.8Z" transform="translate(83.359 158.765)" fill="#fefefe"/>
        <path id="パス_88" data-name="パス 88" d="M11.184-9.248h1.888a12.39,12.39,0,0,1,1.712.1v-1.76a11.766,11.766,0,0,1-1.712.1H11.184v-1.1a9.394,9.394,0,0,1,.1-1.52H9.424a9.531,9.531,0,0,1,.1,1.52v1.1h-1.3c.08-.3.112-.416.208-.784a8.719,8.719,0,0,1,.24-.864L7.04-12.88A10.3,10.3,0,0,1,5.824-8.992v-1.584a4.325,4.325,0,0,1-.864.064H4.48v-1.3a13.815,13.815,0,0,1,.08-1.648H2.72a9.838,9.838,0,0,1,.1,1.648v1.3h-.8a4.606,4.606,0,0,1-1.072-.08v1.728a4.863,4.863,0,0,1,1.072-.08h.64A14.681,14.681,0,0,1,.512-4.112a5.817,5.817,0,0,1,.736,1.776,12.685,12.685,0,0,0,1.68-3.776,18.431,18.431,0,0,0-.112,2.064v3.44a16.236,16.236,0,0,1-.1,1.968H4.576a15.874,15.874,0,0,1-.1-1.968V-4.7c0-.7-.032-1.584-.064-2.112a9.3,9.3,0,0,0,.976,2A5.029,5.029,0,0,1,6.08-6.16V-5.5a13.76,13.76,0,0,1,1.744-.1H8.88A10.5,10.5,0,0,1,4.8-1.408,7.119,7.119,0,0,1,5.792.112,11.436,11.436,0,0,0,9.584-4.032c-.048.624-.064,1.2-.064,1.648v1.9a15.33,15.33,0,0,1-.1,1.856h1.84a14.609,14.609,0,0,1-.1-1.856V-2.5c0-.464-.016-1.04-.064-1.584a11.326,11.326,0,0,0,1.712,2.448A10.272,10.272,0,0,0,14.608.048a4.188,4.188,0,0,1,1.12-1.664A10.471,10.471,0,0,1,11.744-5.6h1.792c.688,0,1.2.032,1.728.08V-7.328a12.717,12.717,0,0,1-1.712.1H11.184Zm-1.664,0v2.016h-1.7a12.9,12.9,0,0,1-1.744-.1v.912a10.794,10.794,0,0,1-1.5-2.528h.4A5.723,5.723,0,0,1,5.76-8.9c-.08.128-.128.192-.272.384A5.853,5.853,0,0,1,6.8-7.472a10.277,10.277,0,0,0,.9-1.776Zm19.392-1.424,1.3-.736a14.187,14.187,0,0,0-1.584-1.808l-1.392.656a9.834,9.834,0,0,1,1.52,1.888H26.864c-.016-.528-.016-.992-.016-1.264a10.98,10.98,0,0,1,.064-1.3H24.976a9.224,9.224,0,0,1,.1,1.248c0,.48,0,.48.048,1.312H18.784a14.711,14.711,0,0,1-1.872-.1v1.792a16.8,16.8,0,0,1,1.872-.1h6.4a25.094,25.094,0,0,0,.384,3.808A11.631,11.631,0,0,0,27.344-.448,3.309,3.309,0,0,0,29.472,1.1a1.377,1.377,0,0,0,1.1-.672,7.387,7.387,0,0,0,.912-3.008,7.173,7.173,0,0,1-1.52-.9c-.208,1.664-.4,2.432-.592,2.432a1.176,1.176,0,0,1-.368-.288,5.209,5.209,0,0,1-.96-1.584,18.236,18.236,0,0,1-1.12-6.16h2.336a14.031,14.031,0,0,1,1.872.1v-1.792a7.733,7.733,0,0,1-1.552.1ZM20.16-5.552V-1.6a22.755,22.755,0,0,1-3.216.368L17.232.576c.272-.048.448-.08.592-.112C19.968.144,22.5-.368,25.2-1.024V-2.656c-1.536.384-2.16.512-3.28.736V-5.552h1.1a15.459,15.459,0,0,1,1.6.08v-1.7a13.6,13.6,0,0,1-1.616.08H19.136a14.217,14.217,0,0,1-1.648-.08v1.7a15.551,15.551,0,0,1,1.616-.08ZM35.952-6.976a12.8,12.8,0,0,1,1.376-.064h5.344a12.154,12.154,0,0,1,1.44.064V-8.224a17.061,17.061,0,0,0,2.736,1.456,7.125,7.125,0,0,1,.88-1.792,16.912,16.912,0,0,1-4.112-2.16,9.717,9.717,0,0,1-2.7-2.656h-1.9a10.536,10.536,0,0,1-2.528,2.688,14.931,14.931,0,0,1-4.016,2.224,7.431,7.431,0,0,1,.928,1.632,15.055,15.055,0,0,0,2.56-1.376ZM37.344-8.7c-.288,0-.384,0-.656-.016a13.66,13.66,0,0,0,3.328-3.1,13.034,13.034,0,0,0,3.344,3.1c-.3.016-.448.016-.7.016ZM37.5-4.08a16.567,16.567,0,0,1-1.712,3.2c-.816.048-1.3.064-1.408.064-.224,0-.5-.016-.928-.048l.256,1.952A19.026,19.026,0,0,1,35.776.864c.64-.048,3.808-.336,5.392-.48C41.76.32,42.72.208,44.048.032c.272.384.432.608.96,1.392L46.544.416a32.743,32.743,0,0,0-3.7-4.272l-1.584.7c.9.928,1.168,1.216,1.68,1.776-2.24.24-2.24.24-5.072.4a17.393,17.393,0,0,0,1.664-3.1h5.5a14.886,14.886,0,0,1,1.872.1V-5.84a15.065,15.065,0,0,1-1.872.1H35.072a15.715,15.715,0,0,1-1.888-.1v1.856a14.989,14.989,0,0,1,1.888-.1Zm15.3-.864a8.782,8.782,0,0,0,2.064,1.808,6.824,6.824,0,0,1,.88-1.568A9.434,9.434,0,0,1,53.2-6.736a13.146,13.146,0,0,0,1.6-2.736,4.448,4.448,0,0,1,.352-.672l-.768-.832a5.828,5.828,0,0,1-.928.048H52.8V-12.24a6.82,6.82,0,0,1,.1-1.248H50.96a7.347,7.347,0,0,1,.1,1.216v1.344h-.8a9.769,9.769,0,0,1-1.264-.064v1.776a10.955,10.955,0,0,1,1.344-.064h2.608A9.506,9.506,0,0,1,51.2-6.816a11.035,11.035,0,0,1-2.752,2.16,6.2,6.2,0,0,1,.816,1.664,10.782,10.782,0,0,0,1.776-1.36V-.336a9.572,9.572,0,0,1-.1,1.664H52.88A11.362,11.362,0,0,1,52.8-.3Zm6.784-2.368h1.7c.56,0,1.056.032,1.568.08V-9.04a10.406,10.406,0,0,1-1.568.08h-1.7v-2.816A9.38,9.38,0,0,1,59.7-13.44h-2a11.325,11.325,0,0,1,.112,1.664V-8.96h-1.2a10.8,10.8,0,0,1-1.568-.08v1.808c.512-.048,1.024-.08,1.568-.08h1.2v6.256H56.064a14.509,14.509,0,0,1-1.84-.1V.784A12.9,12.9,0,0,1,56.032.672H61.5a13.138,13.138,0,0,1,1.824.112V-1.152a13.724,13.724,0,0,1-1.824.1h-1.92Z" transform="translate(16 160.765)" fill="#fefefe"/>
      </g>
    </g>
  </g>
</svg>
