<svg width="514" height="241" viewBox="0 0 514 241" fill="none" xmlns="http://www.w3.org/2000/svg">
<path d="M2.31671 138.424C-3.72243 113.376 3.32771 92.5765 19.9507 73.8766C39.1011 52.3335 63.6202 39.6203 89.5781 28.8603C112.081 19.5324 135.553 13.6798 159.384 9.02597C189.029 3.23699 218.94 0.974018 249.135 0.542217C278.339 0.124592 307.339 1.91799 336.119 6.33535C356.818 9.51212 377.399 14.0168 397.291 20.555C422.555 28.8585 447.212 38.8256 469.458 53.9007C485.787 64.9668 499.905 78.1796 507.894 96.4465C518.263 120.154 514.988 142.119 498.492 162.612C480.499 184.964 456.758 198.505 431.179 209.742C420.871 214.27 410.399 218.366 399.589 221.457C381.205 226.713 362.384 229.92 343.545 233.112C321.031 236.927 298.385 239.319 275.595 239.845C262.491 240.148 249.363 240.134 236.212 239.169C224.304 238.295 212.336 237.944 200.467 236.575C190.554 235.432 180.698 233.757 170.845 232.147C157.259 229.927 143.537 228.208 130.204 224.926C124.491 223.52 118.415 222.67 112.922 219.85C108.68 217.672 103.774 216.831 99.3613 214.936C84.4122 208.515 69.4169 202.171 54.7271 195.192C49.4008 192.662 45.006 188.237 39.9748 185.006C28.6436 177.728 19.6991 168.081 11.6157 157.471C7.31261 151.822 5.07652 145.239 2.31671 138.424ZM297.27 16.2706C285.227 14.4467 273.048 14.6206 260.957 14.6116C244.885 14.5997 228.8 15.0828 212.711 15.8668C195.019 16.7289 177.559 19.0692 160.459 22.7023C143.791 26.2436 126.924 29.4583 110.815 35.853C94.0709 42.4997 77.0967 48.2808 61.4285 57.5266C46.6824 66.2282 32.5622 75.4327 22.894 89.8943C15.357 101.168 9.93474 113.348 13.2154 127.392C15.9735 139.199 21.4622 149.593 29.8769 158.623C40.3659 169.878 53.3891 177.522 66.0592 185.738C67.6508 186.77 69.4879 187.391 71.2456 186.337C72.8864 185.353 71.94 183.631 71.945 182.206C72.0007 166.245 71.7339 150.274 72.1901 134.325C72.7228 115.699 72.5255 97.089 72.4435 78.4666C72.4149 71.9808 71.4093 65.5671 71.7575 59.088C71.9525 55.4589 73.8129 53.0866 77.2914 53.423C82.0014 53.8785 86.6033 52.8264 91.1997 53.0474C105.174 53.7192 119.126 52.7492 133.091 52.9505C158.028 53.3099 182.967 53.4656 207.906 53.6577C211.222 53.6833 214.534 53.9796 217.864 53.2768C221.295 52.5526 223.055 51.0752 222.901 47.2162C222.721 42.7311 222.77 38.2557 222.21 33.7732C221.558 28.5568 223.805 25.6926 228.645 25.9092C241.129 26.4679 253.6 25.8002 266.077 25.8357C269.623 25.8459 271.264 27.3105 271.223 30.9242C271.158 36.7307 271.373 42.5406 271.293 48.3467C271.239 52.2827 273.276 53.9769 276.865 53.5769C287.331 52.4105 297.838 53.3169 308.309 52.72C310.993 52.5669 313.691 52.2157 315.783 50.3737C324.878 42.3625 333.912 34.2825 342.965 26.223C343.998 25.3034 344.888 24.2498 344.345 22.7611C343.879 21.4858 342.663 21.3793 341.48 21.1601C327.145 18.5053 312.608 17.6715 297.27 16.2706ZM199.97 82.2253C188.349 81.8465 176.735 81.7828 165.102 81.9136C147.471 82.1119 129.831 81.5074 112.195 81.5407C105.716 81.553 104.211 83.3483 104.201 89.634C104.14 125.12 104.221 160.606 104.034 196.091C104.009 200.963 105.76 203.399 110.377 204.586C120.026 207.065 129.602 209.828 139.199 212.508C142.203 213.346 144.717 212.692 146.985 210.524C152.035 205.693 157.168 200.949 162.259 196.16C163.214 195.261 164.384 194.44 163.863 192.815C163.65 192.567 163.476 192.156 163.218 192.094C148.036 188.447 132.796 184.938 117.215 183.705C112.08 183.298 110.159 180.673 110.028 176.665C109.867 171.717 109.742 166.718 110.441 161.719C111.095 157.04 113.342 155.734 117.596 156.874C135.955 161.794 154.81 164.104 173.478 167.373C181.535 168.784 189.954 171.026 196.695 163.585C198.013 162.13 200.213 160.977 199.397 158.683C198.607 156.459 196.253 157.212 194.545 157.218C181.062 157.265 167.579 157.361 154.098 157.557C149.041 157.631 147.435 156.176 147.692 151.344C148.027 145.029 148.565 138.705 148.461 132.394C148.409 129.256 149.685 127.566 151.867 125.758C154.013 123.98 157.287 123.267 158.441 119.269C150.884 119.04 143.791 118.954 136.742 118.224C131.075 117.636 129.005 115.903 128.958 110.119C128.929 106.631 129.545 103.135 129.468 99.6519C129.265 90.5231 129.817 90.0253 138.962 91.1942C156.66 93.4563 174.382 93.9036 192.174 92.1232C199.939 91.3462 207.77 91.203 215.576 90.8777C219.06 90.7325 221.099 92.1447 221.449 96.0475C221.804 100.004 222.756 103.923 223.658 107.809C224.483 111.362 223.393 114.465 220.52 116.077C214.642 119.374 210.353 125.141 203.453 126.841C202.141 127.164 200.588 127.87 200.08 129.757C201.138 131.509 202.931 131.739 204.778 131.674C212.753 131.396 220.729 131.143 228.696 130.714C231.01 130.59 233.445 130.066 234.855 127.917C237.076 124.535 240.424 122.248 243.237 119.521C254.438 108.66 266.114 98.291 277.56 87.6815C278.97 86.3742 281.032 84.9286 280.14 82.7032C279.313 80.6414 276.96 81.2692 275.212 81.2598C263.884 81.1988 252.554 81.1022 241.229 81.2549C227.754 81.4364 214.252 80.4738 199.97 82.2253ZM306.06 107.604C320.324 106.605 334.642 106.062 348.824 104.375C354.206 103.735 355.75 105.396 356.291 109.901C356.489 111.553 356.895 113.192 356.954 114.846C357.108 119.184 354.695 122.069 350.371 121.775C344.541 121.38 338.753 121.579 332.938 121.703C320.472 121.968 308.003 122.069 295.534 122.195C292.767 122.223 291.213 123.635 290.517 126.17C288.402 133.877 290.63 137.096 298.494 137.566C300.65 137.695 302.83 137.645 304.988 137.504C320.132 136.514 335.302 137.08 350.455 136.709C353.467 136.635 355.341 137.818 355.777 140.73C356.318 144.346 356.97 148.02 356.832 151.64C356.693 155.275 355.151 159.011 350.702 158.568C334.585 156.962 318.48 158.299 302.372 158.28C298.573 158.276 295.447 159.181 295.107 163.915C294.732 169.129 298.399 169.52 301.943 169.703C310.743 170.159 319.553 170.545 328.362 170.652C361.958 171.059 395.557 171.345 429.154 171.673C431.013 171.691 432.801 171.717 433.675 169.484C436.589 162.039 433.14 156.493 425.31 156.182C424.314 156.142 423.312 156.222 422.313 156.249C411.342 156.547 400.373 156.883 389.401 157.12C386.313 157.187 382.575 156.799 382.232 153.229C381.726 147.948 380.213 142.247 384.135 137.421C384.477 137 385.359 136.885 386 136.858C392.816 136.57 399.637 136.072 406.452 136.135C415.758 136.222 425.055 136.988 434.373 136.406C442.44 135.901 442.427 135.948 442.001 127.62C441.951 126.638 442.19 125.641 442.294 124.651C442.819 119.65 441.148 117.575 436.135 118.218C422.049 120.026 407.856 118.574 393.74 120.057C382.282 121.261 380.669 119.03 381.658 107.556C381.974 103.885 383.588 102.061 387.234 101.967C389.065 101.92 390.896 101.853 392.725 101.752C402.361 101.219 411.999 100.709 421.631 100.114C425.983 99.8457 427.209 97.3535 426.492 93.2593C425.826 89.4647 425.606 86.4353 419.987 86.8516C411.708 87.4651 403.558 89.3198 395.197 89.1221C382.247 88.8159 369.37 90.3185 356.459 90.9946C346.177 91.533 335.898 91.0654 325.595 92.6435C319.829 93.5266 313.688 92.8346 307.762 93.6045C305.391 93.9125 302.304 93.893 302.246 97.4025C302.187 100.99 300.305 105.283 306.06 107.604ZM186.163 180.768C183.559 182.538 180.98 184.346 178.339 186.059C177.329 186.714 176.196 187.268 176.493 188.678C176.82 190.227 178.111 190.651 179.523 190.786C188.132 191.607 196.697 192.713 205.175 194.458C216.62 196.815 228.324 196.967 239.875 198.458C263.639 201.526 287.551 203.075 311.431 204.843C329.661 206.192 347.947 206.765 366.201 207.804C376.972 208.417 387.695 210.053 398.224 205.636C402.597 203.802 407.148 202.18 411.682 200.644C415.704 199.282 420.601 198.461 423.61 193.966C420.389 192.608 417.504 192.612 414.51 192.583C404.542 192.487 394.564 192.366 384.614 191.808C367.512 190.849 350.428 189.551 333.337 188.399C323.716 187.75 313.969 189.115 304.457 187.098C296.108 185.328 287.61 185.315 279.21 184.219C265.365 182.413 251.415 181.592 237.57 179.661C223.583 177.711 209.592 175.364 195.36 176.135C191.884 176.324 188.222 176.07 186.163 180.768ZM464.523 65.0351C458.845 60.1047 453.302 55.7057 444.831 55.9116C429.369 56.2875 413.884 56.0637 398.401 55.4644C387.289 55.0342 376.13 55.9162 364.989 56.1153C349.519 56.3918 334.047 56.5885 318.574 56.779C317.332 56.7943 316.302 57.1272 315.353 57.8753C308.284 63.4427 303.079 71.1539 295.011 75.5853C294.751 75.7278 294.817 76.4638 294.73 76.9334C296.497 78.5351 298.586 78.0215 300.507 78.0339C308.324 78.0847 316.141 77.9892 323.958 78.0246C363.592 78.204 403.236 76.8873 442.861 78.9312C450.16 79.3077 457.481 78.8999 464.813 79.4645C470.081 79.8701 475.446 78.9932 480.768 78.6884C480.849 78.1735 480.929 77.6586 481.009 77.1437C475.674 73.2829 470.339 69.422 464.523 65.0351Z" fill="#19AB71"/>
</svg>
