<svg xmlns="http://www.w3.org/2000/svg" width="94.853" height="80.003" viewBox="0 0 94.853 80.003"><g transform="translate(-254.521 -455.33)"><rect width="11.226" height="11.225" transform="translate(293.941 505.517) rotate(-45)" fill="#0a2054"/><path d="M334.663,537.471l-7.937,7.938-7.939-7.937,7.94-7.939Z" transform="translate(-45.97 -53.078)" fill="#0a2054"/><path d="M382.378,463.269,363.9,481.746l-7.938-7.937,18.479-18.479Z" transform="translate(-72.562)" fill="#0a2054"/><path d="M371.839,574.65l-7.938,7.94-7.938-7.94,7.938-7.937Z" transform="translate(-72.562 -79.673)" fill="#a6a7a7"/><rect width="11.225" height="11.225" transform="translate(293.941 484.349) rotate(-44.996)" fill="#078db1"/><path d="M464.263,545.165a8.053,8.053,0,1,1,5.693-2.357,8.007,8.007,0,0,1-5.693,2.357" transform="translate(-144.272 -52.74)" fill="#0a2054"/><path d="M254.521,688.51V676.435h7.508v.79h-6.3v4.1h4.724v.792h-4.724v6.392Z" transform="translate(0 -158.159)" fill="#1a1311"/><path d="M285.295,688.469V676.377H286.4v11.3h4.561v.794Z" transform="translate(-22.012 -158.117)" fill="#1a1311"/><path d="M315.51,688.509l-2.046-5.376h-4.146l-2.073,5.376h-.716l4.633-12.077h.6l4.746,12.077Zm-4.1-10.782-1.831,4.726h3.633Z" transform="translate(-37.201 -158.156)" fill="#1a1311"/><path d="M354.5,688.588c-2.605-.616-3.554-3.809-4.157-5.871a3.729,3.729,0,0,0-2.392-.86h-1.491v6.624h-1.075V676.393c1.316,0,3.53-.016,3.53-.016h.013c2.349,0,3.358,1.326,3.358,2.666a2.688,2.688,0,0,1-2.514,2.709,3.981,3.981,0,0,1,1.582.768c.421,1.583,1.384,4.907,3.385,5.587Zm-5.662-7.317a2.283,2.283,0,0,0,2.438-2.213c0-1.053-.8-2.077-2.513-2.077h-2.3v4.29Z" transform="translate(-64.998 -158.117)" fill="#1a1311"/><path d="M380.127,688.51V676.435h5.863v.646h-4.756v4.171h3.778v.647h-3.778v5.962h5.042v.648Z" transform="translate(-89.847 -158.159)" fill="#1a1311"/><path d="M423.282,688.138a6.3,6.3,0,1,1,6.122-6.309,5.9,5.9,0,0,1-6.122,6.309m5.107-6.324c0-3.794-2.446-5.688-5.107-5.688s-5.092,1.894-5.092,5.688,2.432,5.7,5.092,5.7,5.107-1.909,5.107-5.7" transform="translate(-116.347 -157.516)" fill="#1a1311"/><path d="M464.662,701.294v-6.686h.887v.723a2.85,2.85,0,0,1,2.031-1.024l.047.754a2.334,2.334,0,0,0-2.077,1.144v5.089Z" transform="translate(-150.315 -170.942)" fill="#1a1311"/><path d="M479.246,685.05a.737.737,0,1,1,.738-.736.739.739,0,0,1-.738.736m-.437,1.881h.886v6.687h-.886Z" transform="translate(-160.218 -163.266)" fill="#1a1311"/><path d="M494.066,700.678a3.835,3.835,0,0,1-2.529.98,3.622,3.622,0,1,1,0-7.242,3.879,3.879,0,0,1,2.485.932v-.693h.872l.044,6.113v.045a5.765,5.765,0,0,1-5.825,5.54,5.87,5.87,0,0,1-.9-.075l-.226-1.041a3.584,3.584,0,0,0,1.7.44c2.348,0,4.381-2.411,4.381-4.9v-.1Zm-.03-4.14a2.567,2.567,0,0,0-2.5-1.55,3.059,3.059,0,0,0,0,6.1,2.566,2.566,0,0,0,2.514-1.594Z" transform="translate(-166.879 -171.02)" fill="#1a1311"/><path d="M518.88,685.05a.737.737,0,1,1,.737-.736.737.737,0,0,1-.737.736m-.437,1.881h.887v6.687h-.887Z" transform="translate(-188.571 -163.266)" fill="#1a1311"/><path d="M533.75,701.369v-4.5a1.749,1.749,0,0,0-1.824-1.838,2.133,2.133,0,0,0-1.986,1.342v5h-.887v-6.686h.887v.692a2.923,2.923,0,0,1,2.214-.963,2.327,2.327,0,0,1,2.469,2.409v4.549Z" transform="translate(-196.375 -171.017)" fill="#1a1311"/><path d="M559.013,701.373v-.68a3.815,3.815,0,0,1-2.514.965,3.622,3.622,0,1,1,0-7.242,3.9,3.9,0,0,1,2.514.963v-.693h.886v6.687Zm0-4.791a2.559,2.559,0,0,0-2.514-1.595,3.058,3.058,0,0,0,0,6.1,2.591,2.591,0,0,0,2.514-1.593Z" transform="translate(-213.346 -171.02)" fill="#1a1311"/><rect width="0.902" height="12.525" transform="translate(348.473 517.827)" fill="#1a1311"/></g></svg>