<svg width="554" height="353" viewBox="0 0 554 353" fill="none" xmlns="http://www.w3.org/2000/svg">
<path d="M464.07 176.68L276.75 300.24L89.4297 176.68L276.75 53.12L464.07 176.68Z" fill="#F0D5CE"/>
<path d="M224.25 120.01L222.59 118.78L222.4 119.69C222.22 119.69 222.05 119.69 221.87 119.7L190.07 122.15C187.41 122.35 185.2 124.29 184.66 126.91C177.24 162.45 169.02 191.87 159.55 216.86C159.29 217.55 159.16 218.27 159.16 218.99C159.16 220.19 159.52 221.38 160.22 222.4C161.34 224.02 163.19 224.99 165.16 224.99H199.1C201.39 224.99 203.47 223.69 204.48 221.64C206.68 217.18 208.7 212.66 210.6 208.11C222.46 216.75 232.59 221.19 241.28 221.49C241.25 221.58 241.22 221.67 241.18 221.75C240.92 222.44 240.79 223.16 240.79 223.88C240.79 225.08 241.15 226.27 241.85 227.29C242.97 228.91 244.82 229.88 246.79 229.88H280.73C283.02 229.88 285.1 228.58 286.11 226.53C288.63 221.4 290.95 216.2 293.07 210.96C295.6 211.2 298.05 213.27 301.58 216.43C306.82 221.12 313.76 227.34 325.09 226.71C325.27 227.34 325.54 227.95 325.92 228.51C327.04 230.13 328.89 231.1 330.86 231.1H364.8C367.09 231.1 369.17 229.8 370.18 227.75C385.03 197.56 393.05 165.34 394.03 131.98C394.03 131.92 394.03 131.86 394.03 131.8C394.03 130.16 393.36 128.59 392.17 127.46C390.94 126.29 389.27 125.69 387.57 125.82L355.77 128.27C353.11 128.47 350.9 130.41 350.36 133.03C349.44 137.44 348.5 141.76 347.56 145.99C340.58 151.84 334.29 146.63 324.84 137.41C319.4 132.1 314.24 127.06 308.59 126.78C308.44 126.59 308.27 126.41 308.1 126.24C306.87 125.07 305.2 124.47 303.5 124.6L271.7 127.05C269.04 127.25 266.83 129.19 266.29 131.81C265.73 134.49 265.17 137.11 264.6 139.72C255.08 139.46 242.93 133.81 227.59 122.48L227.19 122.19C226.98 121.9 226.74 121.62 226.47 121.36C225.83 120.75 225.07 120.3 224.25 120.02V120.01ZM388.04 131.8C387.07 165.03 379.09 196.06 364.8 225.09H333C342.18 221.11 348.37 207.7 351.87 184.25C354.54 166.38 354.57 149.39 354.57 148.68V142.1C355.14 139.49 355.7 136.87 356.25 134.24L388.05 131.79L388.04 131.8ZM297.83 131.05C296.7 132.02 295.64 133.13 294.66 134.42C280.01 153.72 287.29 205.36 287.6 207.55L287.7 208.26C285.57 213.52 283.25 218.73 280.73 223.87H246.79C247.17 222.87 247.54 221.86 247.91 220.86L249.98 220.4L273.51 139.03L270.84 139.3C271.29 137.22 271.73 135.13 272.17 133.03L297.83 131.06V131.05ZM165.16 218.98C175.73 191.11 183.8 160.38 190.54 128.13L221.11 125.78L204.58 203.5L205.67 204.35C203.65 209.28 201.47 214.16 199.1 218.97H165.16V218.98Z" fill="#2A2840"/>
<path d="M275.12 16.84L251.93 1.54001C250.76 0.770009 249.25 0.720023 248.03 1.43002L226.85 13.68C224.43 15.08 224.33 18.54 226.66 20.08L246.32 33.05C248.09 34.22 248.09 36.81 246.32 37.98L64.3699 158.01C63.3799 158.66 62.0999 158.66 61.1199 158.01L27.0199 135.52C25.8499 134.75 24.3399 134.7 23.1199 135.41L1.94986 147.66C-0.470145 149.06 -0.580144 152.53 1.75986 154.07L32.3299 174.23C34.0999 175.4 34.0999 177.99 32.3299 179.16L1.75986 199.31C-0.580144 200.85 -0.480145 204.32 1.94986 205.72L23.1199 217.97C24.3399 218.67 25.8399 218.63 27.0199 217.86L61.1199 195.37C62.1099 194.72 63.3899 194.72 64.3699 195.37L246.33 315.38C248.1 316.55 248.1 319.14 246.33 320.31L226.67 333.28C224.33 334.82 224.43 338.28 226.86 339.68L248.04 351.93C249.26 352.63 250.77 352.59 251.94 351.82L275.13 336.52C276.12 335.87 277.4 335.87 278.38 336.52L301.57 351.82C302.74 352.59 304.25 352.64 305.47 351.93L326.64 339.68C329.06 338.28 329.17 334.81 326.83 333.27L307.18 320.31C305.41 319.14 305.41 316.55 307.18 315.38L489.13 195.35C490.12 194.7 491.4 194.7 492.38 195.35L526.48 217.84C527.65 218.61 529.16 218.66 530.38 217.95L551.55 205.7C553.97 204.3 554.08 200.83 551.74 199.29L521.17 179.13C519.4 177.96 519.4 175.37 521.17 174.2L551.74 154.04C554.08 152.5 553.98 149.03 551.55 147.63L530.38 135.38C529.16 134.68 527.66 134.72 526.48 135.49L492.38 157.98C491.39 158.63 490.11 158.63 489.13 157.98L307.18 37.95C305.41 36.78 305.41 34.19 307.18 33.02L326.83 20.06C329.17 18.52 329.07 15.05 326.64 13.65L305.47 1.40002C304.25 0.700024 302.75 0.74001 301.57 1.51001L278.38 16.81C277.39 17.46 276.11 17.46 275.13 16.81L275.12 16.84ZM460.33 179.15L278.37 299.18C277.38 299.83 276.1 299.83 275.12 299.18L93.1699 179.15C91.3999 177.98 91.3999 175.39 93.1699 174.22L275.12 54.19C276.11 53.54 277.39 53.54 278.37 54.19L460.33 174.22C462.1 175.39 462.1 177.98 460.33 179.15Z" fill="#2A2840"/>
<path d="M330.87 225.09C341.44 197.22 349.51 166.49 356.25 134.24L388.05 131.79C387.08 165.02 379.1 196.04 364.81 225.08H330.87V225.09Z" fill="#F0D5CE"/>
<path d="M165.16 218.98C175.73 191.11 183.8 160.38 190.54 128.13L222.34 125.68C221.37 158.91 213.39 189.93 199.1 218.97H165.16V218.98Z" fill="#F0D5CE"/>
<path d="M246.79 223.87C257.36 196 265.43 165.27 272.17 133.02L303.97 130.57C303 163.8 295.02 194.82 280.73 223.86H246.79V223.87Z" fill="#F0D5CE"/>
</svg>
