<?xml version="1.0" encoding="UTF-8"?><svg id="_レイヤー_2" xmlns="http://www.w3.org/2000/svg" viewBox="0 0 228.6 239.35"><defs><style>.cls-1{fill:#30c;}.cls-1,.cls-2,.cls-3,.cls-4{stroke-width:0px;}.cls-2{fill:#000;}.cls-3{fill:gray;}.cls-4{fill:red;}</style></defs><g id="_レイヤー_1-2"><path class="cls-2" d="M.04,238.59s-.09-7.87,0-11.39c.08-3.51,2.31-7.42,7.41-7.42h9.81v3.49s-7.18-.08-8.85,0c-1.68.08-3.27,1.59-3.27,3.93h12.23v4.1H4.89v7.2l-4.85.08Z"/><path class="cls-2" d="M25.32,230.38h0l2.6-5.44,2.59,5.44h-5.19ZM30.66,219.78h-5.11l-9,18.75,5.33.05,1.59-4.19h8.54l1.82,4.1h5.54l-8.73-18.72Z"/><path class="cls-2" d="M130.27,230.38h0l2.6-5.44,2.6,5.44h-5.19ZM135.61,219.78h-5.11l-9,18.75,5.34.05,1.59-4.19h8.54l1.82,4.1h5.54l-8.73-18.72Z"/><path class="cls-2" d="M172.37,230.38h0l2.6-5.44,2.6,5.44h-5.19ZM177.71,219.78h-5.11l-9,18.75,5.34.05,1.59-4.19h8.54l1.82,4.1h5.54l-8.73-18.72Z"/><path class="cls-2" d="M58.23,223.69v-3.91h-13.42c-2.95,0-5.68,1.9-5.68,5.58s2.6,5.78,5.28,5.78,5.44.08,7.45.08,2.18.83,2.18,1.84-.5,1.93-2.18,1.93h-11.97v3.6s11.89.26,13.96.26,5.47-1.01,5.47-6.03-3.94-5.36-5.61-5.36-6.53-.08-7.79-.08-1.67-.5-1.67-1.76.25-2.01,1.51-2.01,12.47.09,12.47.09"/><path class="cls-2" d="M77.9,223.6v-3.6h-9.81c-4.44,0-5.77,2.84-6.23,3.64-.63,1.1-1.05,1.47-1.05,5.52,0,3.63,1.07,6.01,1.74,6.84.89,1.1,3,2.83,5.29,2.83h10.14v-3.77h-8.22c-.92,0-2.19-.46-2.65-.92-.46-.46-1.26-2.04-1.26-4.98s.55-3.8,1.43-4.68c.88-.88,2.26-.8,2.68-.8s7.94-.09,7.94-.09"/><path class="cls-2" d="M89.53,235.48h0c-3.68,0-4.94-2.94-4.94-6.34s1.34-6.01,4.94-6.01,5.27,2.76,5.27,6.18-1.51,6.17-5.27,6.17M89.7,219.5c-8.21,0-10.26,4.21-10.26,10.13s2.72,9.71,10.34,9.71c8.04,0,10.42-3.8,10.42-9.71s-2.14-10.13-10.51-10.13Z"/><path class="cls-2" d="M217.92,235.48h0c-3.68,0-4.94-2.94-4.94-6.34s1.34-6.01,4.94-6.01,5.27,2.76,5.27,6.18-1.51,6.17-5.27,6.17M218.09,219.5c-8.21,0-10.26,4.21-10.26,10.13s2.72,9.71,10.34,9.71c8.04,0,10.42-3.8,10.42-9.71s-2.14-10.13-10.51-10.13Z"/><polygon class="cls-2" points="115.99 219.78 115.99 231.44 108.52 219.78 102.33 219.78 102.33 238.85 107.52 238.85 107.52 226.42 115.38 238.85 121.18 238.85 121.18 219.78 115.99 219.78"/><polygon class="cls-2" points="200.74 219.78 200.74 231.44 193.27 219.78 187.07 219.78 187.07 238.85 192.26 238.85 192.26 226.42 200.13 238.85 205.93 238.85 205.93 219.78 200.74 219.78"/><path class="cls-2" d="M152.71,223.69c.42,0,10.76-.09,10.76-.09v-3.6h-11.35c-2.62,0-6.31,2.14-7,3.98-.32.86-1.12,2.33-1.12,5.5s1.43,6.09,2.09,6.92c1.2,1.51,4.56,2.43,5.79,2.43h11.47v-11.19h-10.79v3.84h5.79v3.58h-5.66c-.92,0-1.72-.46-2.18-.92-.46-.46-1.26-2.08-1.26-4.78,0-2.92.59-4.1,1.52-4.93.68-.61,1.49-.75,1.91-.75"/><rect class="cls-4" x="22.08" y="80.96" width="49.58" height="49.58" transform="translate(-61.05 64.12) rotate(-45.01)"/><rect class="cls-1" x="49.75" y="28.09" width="99.98" height="49.57" transform="translate(-8.18 86.01) rotate(-45)"/><polygon class="cls-3" points="152.62 176.45 117.56 211.5 46.87 140.81 81.92 105.75 152.62 176.45"/><polygon class="cls-4" points="123.1 105.75 144.33 68.98 165.56 105.75 144.33 142.52 123.1 105.75"/><polygon class="cls-1" points="186.79 68.98 144.33 68.98 165.56 105.75 208.02 105.75 186.79 68.98"/><polygon class="cls-3" points="208.02 105.75 165.56 105.75 144.33 142.52 186.79 142.52 208.02 105.75"/></g></svg>